<svg xmlns="http://www.w3.org/2000/svg" viewBox="0 0 257 600.31"><defs><style>.cls-1{fill:#13177a;}.cls-2{fill:#10a4e1;}</style></defs><title>Asset 3</title><g id="Layer_2" data-name="Layer 2"><g id="Layer_1-2" data-name="Layer 1"><rect class="cls-1" y="53.81" width="257" height="48" rx="12"/><rect class="cls-1" y="120.81" width="257" height="48" rx="12"/><rect class="cls-1" y="187.81" width="257" height="48" rx="12"/><rect class="cls-1" y="254.81" width="257" height="48" rx="12"/><rect class="cls-1" y="321.81" width="257" height="48" rx="12"/><rect class="cls-1" y="388.81" width="257" height="48" rx="12"/><rect class="cls-1" y="455.81" width="257" height="48" rx="12"/><rect class="cls-1" y="522.81" width="257" height="48" rx="12"/><path class="cls-1" d="M.1,600.31A12,12,0,0,1,12,589.81H245a12,12,0,0,1,11.9,10.5"/><path class="cls-1" d="M0,.31v22.5a12,12,0,0,0,12,12H245a12,12,0,0,0,12-12V.31Zm155.13,6.2L157.75.9l2.62,5.61ZM120.45,3.4h4.7c.46,0,.7.18.7.56V9.45c0,.38-.24.56-.7.56h-4.7Z"/><path class="cls-2" d="M103.25,0h-6a.88.88,0,0,0-.64.2l7.31,0A.83.83,0,0,0,103.25,0Zm3.58.31s0,0,0-.07h-2.9a.35.35,0,0,1,0,.08.58.58,0,0,1,.08.33V9.17c0,.42-.26.64-.8.64h-6c-.54,0-.8-.22-.8-.64V.64a.58.58,0,0,1,.08-.33A.28.28,0,0,1,96.61.2H93.69s0,.08,0,.12,0,.25,0,.39V9.11q0,2.4,3,2.4h7.2q3,0,3-2.4V.7C106.85.56,106.84.43,106.83.31Z"/><path class="cls-2" d="M112.45,1.9c-1.86,0-2.8.74-2.8,2.24v7.37h2.6V4c0-.38.24-.56.7-.56h2.9V1.9Z"/><path class="cls-2" d="M125.65,1.9h-5.2V.29h-2.6V11.51h7.8c1.86,0,2.8-.74,2.8-2.24V4.14C128.45,2.64,127.51,1.9,125.65,1.9Zm.2,7.55c0,.38-.24.56-.7.56h-4.7V3.4h4.7c.46,0,.7.18.7.56Z"/><path class="cls-2" d="M131.05,1.9v9.61h2.6V1.9Z"/><path class="cls-2" d="M142.45,3.4V1.9h-3.6V.31h-2.6v9c0,1.5.94,2.24,2.8,2.24h3.4V10h-2.9c-.46,0-.7-.18-.7-.56v-6Z"/><path class="cls-2" d="M160.35.44l-.06-.13h-5.08l-.05.11L150,11.51h2.84l1.54-3.3h6.84l1.54,3.3h2.84Zm-5.22,6.07L157.75.9l2.62,5.61Z"/><path class="cls-2" d="M93.65,73.7q0-2.4,3-2.4h7.2q3,0,3,2.4v8.41q0,2.4-3,2.4h-7.2q-3,0-3-2.4Zm3.6,9.11h6c.54,0,.8-.22.8-.64V73.64c0-.42-.26-.64-.8-.64h-6c-.54,0-.8.22-.8.64v8.53C96.45,82.59,96.71,82.81,97.25,82.81Z"/><path class="cls-2" d="M109.65,77.14c0-1.5.94-2.24,2.8-2.24h3.4v1.5H113c-.46,0-.7.18-.7.56v7.55h-2.6Z"/><path class="cls-2" d="M117.85,71.3h2.6v3.6h5.2c1.86,0,2.8.74,2.8,2.24v5.13c0,1.5-.94,2.24-2.8,2.24h-7.8ZM125.15,83c.46,0,.7-.18.7-.56V77c0-.38-.24-.56-.7-.56h-4.7V83Z"/><path class="cls-2" d="M131.05,71.3h2.6v2h-2.6Zm0,3.6h2.6v9.61h-2.6Z"/><path class="cls-2" d="M136.25,71.3h2.6v3.6h3.6v1.5h-3.6v6c0,.38.24.56.7.56h2.9v1.5h-3.4c-1.86,0-2.8-.74-2.8-2.24Z"/><path class="cls-2" d="M151.25,71.3h9.6q3,0,3,2.4v1.58a2.08,2.08,0,0,1-1.3,2.12,2.1,2.1,0,0,1,1.5,2.21v2.5q0,2.4-3,2.4h-9.8Zm9,5.3c.54,0,.8-.22.8-.64V73.64c0-.42-.26-.64-.8-.64h-6.2v3.6Zm.2,6.21c.54,0,.8-.22.8-.64V79c0-.43-.26-.64-.8-.64h-6.4v4.5Z"/><path class="cls-2" d="M93.65,140.7q0-2.4,3-2.4h7.2q3,0,3,2.4v8.41q0,2.4-3,2.4h-7.2q-3,0-3-2.4Zm3.6,9.11h6c.54,0,.8-.22.8-.64v-8.53c0-.42-.26-.64-.8-.64h-6c-.54,0-.8.22-.8.64v8.53C96.45,149.59,96.71,149.81,97.25,149.81Z"/><path class="cls-2" d="M109.65,144.14c0-1.5.94-2.24,2.8-2.24h3.4v1.5H113c-.46,0-.7.18-.7.56v7.55h-2.6Z"/><path class="cls-2" d="M117.85,138.3h2.6v3.6h5.2c1.86,0,2.8.74,2.8,2.24v5.13c0,1.5-.94,2.24-2.8,2.24h-7.8Zm7.3,11.71c.46,0,.7-.18.7-.56V144c0-.38-.24-.56-.7-.56h-4.7V150Z"/><path class="cls-2" d="M131.05,138.3h2.6v2h-2.6Zm0,3.6h2.6v9.61h-2.6Z"/><path class="cls-2" d="M136.25,138.3h2.6v3.6h3.6v1.5h-3.6v6c0,.38.24.56.7.56h2.9v1.5h-3.4c-1.86,0-2.8-.74-2.8-2.24Z"/><path class="cls-2" d="M151.25,140.7q0-2.4,3-2.4h9.2V140h-8.6c-.54,0-.8.22-.8.64v8.53c0,.42.26.64.8.64h8.6v1.7h-9.2q-3,0-3-2.4Z"/><path class="cls-2" d="M93.65,206.7q0-2.4,3-2.4h7.2q3,0,3,2.4v8.41q0,2.4-3,2.4h-7.2q-3,0-3-2.4Zm3.6,9.11h6c.54,0,.8-.22.8-.64v-8.53c0-.42-.26-.64-.8-.64h-6c-.54,0-.8.22-.8.64v8.53C96.45,215.59,96.71,215.81,97.25,215.81Z"/><path class="cls-2" d="M109.65,210.14c0-1.5.94-2.24,2.8-2.24h3.4v1.5H113c-.46,0-.7.18-.7.56v7.55h-2.6Z"/><path class="cls-2" d="M117.85,204.3h2.6v3.6h5.2c1.86,0,2.8.74,2.8,2.24v5.13c0,1.5-.94,2.24-2.8,2.24h-7.8Zm7.3,11.71c.46,0,.7-.18.7-.56V210c0-.38-.24-.56-.7-.56h-4.7V216Z"/><path class="cls-2" d="M131.05,204.3h2.6v2h-2.6Zm0,3.6h2.6v9.61h-2.6Z"/><path class="cls-2" d="M136.25,204.3h2.6v3.6h3.6v1.5h-3.6v6c0,.38.24.56.7.56h2.9v1.5h-3.4c-1.86,0-2.8-.74-2.8-2.24Z"/><path class="cls-2" d="M151.25,204.3h6.8c4.26,0,6.4,1.7,6.4,5.12v3c0,3.42-2.14,5.12-6.4,5.12h-6.8Zm6.4,11.51c2.66,0,4-1.06,4-3.2V209.2c0-2.14-1.34-3.2-4-3.2h-3.6v9.81Z"/><path class="cls-2" d="M92.65,274.7q0-2.4,3-2.4h7.2q3,0,3,2.4v8.41q0,2.4-3,2.4h-7.2q-3,0-3-2.4Zm3.6,9.11h6c.54,0,.8-.22.8-.64v-8.53c0-.42-.26-.64-.8-.64h-6c-.54,0-.8.22-.8.64v8.53C95.45,283.59,95.71,283.81,96.25,283.81Z"/><path class="cls-2" d="M108.65,278.14c0-1.5.94-2.24,2.8-2.24h3.4v1.5H112c-.46,0-.7.18-.7.56v7.55h-2.6Z"/><path class="cls-2" d="M116.85,272.3h2.6v3.6h5.2c1.86,0,2.8.74,2.8,2.24v5.13c0,1.5-.94,2.24-2.8,2.24h-7.8Zm7.3,11.71c.46,0,.7-.18.7-.56V278c0-.38-.24-.56-.7-.56h-4.7V284Z"/><path class="cls-2" d="M130.05,272.3h2.6v2h-2.6Zm0,3.6h2.6v9.61h-2.6Z"/><path class="cls-2" d="M135.25,272.3h2.6v3.6h3.6v1.5h-3.6v6.05c0,.38.24.56.7.56h2.9v1.5h-3.4c-1.86,0-2.8-.74-2.8-2.24Z"/><path class="cls-2" d="M150.25,272.3h12.2V274h-9.4v3.6h8.4v1.71h-8.4v4.5h9.4v1.7h-12.2Z"/><path class="cls-2" d="M93.65,339.7q0-2.4,3-2.4h7.2q3,0,3,2.4v8.41q0,2.4-3,2.4h-7.2q-3,0-3-2.4Zm3.6,9.11h6c.54,0,.8-.22.8-.64v-8.53c0-.42-.26-.64-.8-.64h-6c-.54,0-.8.22-.8.64v8.53C96.45,348.59,96.71,348.81,97.25,348.81Z"/><path class="cls-2" d="M109.65,343.14c0-1.5.94-2.24,2.8-2.24h3.4v1.5H113c-.46,0-.7.18-.7.56v7.55h-2.6Z"/><path class="cls-2" d="M117.85,337.3h2.6v3.6h5.2c1.86,0,2.8.74,2.8,2.24v5.13c0,1.5-.94,2.24-2.8,2.24h-7.8Zm7.3,11.71c.46,0,.7-.18.7-.56V343c0-.38-.24-.56-.7-.56h-4.7V349Z"/><path class="cls-2" d="M131.05,337.3h2.6v2h-2.6Zm0,3.6h2.6v9.61h-2.6Z"/><path class="cls-2" d="M136.25,337.3h2.6v3.6h3.6v1.5h-3.6v6.05c0,.38.24.56.7.56h2.9v1.5h-3.4c-1.86,0-2.8-.74-2.8-2.24Z"/><path class="cls-2" d="M151.25,337.3h12V339h-9.2v3.8h8.2v1.71h-8.2v6h-2.8Z"/><path class="cls-2" d="M93.65,408.7q0-2.4,3-2.4h7.2q3,0,3,2.4v8.41q0,2.4-3,2.4h-7.2q-3,0-3-2.4Zm3.6,9.11h6c.54,0,.8-.22.8-.64v-8.53c0-.42-.26-.64-.8-.64h-6c-.54,0-.8.22-.8.64v8.53C96.45,417.59,96.71,417.81,97.25,417.81Z"/><path class="cls-2" d="M109.65,412.14c0-1.5.94-2.24,2.8-2.24h3.4v1.5H113c-.46,0-.7.18-.7.56v7.55h-2.6Z"/><path class="cls-2" d="M117.85,406.3h2.6v3.6h5.2c1.86,0,2.8.74,2.8,2.24v5.13c0,1.5-.94,2.24-2.8,2.24h-7.8Zm7.3,11.71c.46,0,.7-.18.7-.56V412c0-.38-.24-.56-.7-.56h-4.7V418Z"/><path class="cls-2" d="M131.05,406.3h2.6v2h-2.6Zm0,3.6h2.6v9.61h-2.6Z"/><path class="cls-2" d="M136.25,406.3h2.6v3.6h3.6v1.5h-3.6v6.05c0,.38.24.56.7.56h2.9v1.5h-3.4c-1.86,0-2.8-.74-2.8-2.24Z"/><path class="cls-2" d="M151.25,408.7q0-2.4,3-2.4h9.2V408h-8.6c-.54,0-.8.22-.8.64v8.53c0,.42.26.64.8.64h6.6v-4.5h-3.4V411.6h6.2v7.91h-10q-3,0-3-2.4Z"/><path class="cls-2" d="M93.65,475.7q0-2.4,3-2.4h7.2q3,0,3,2.4v8.41q0,2.4-3,2.4h-7.2q-3,0-3-2.4Zm3.6,9.11h6c.54,0,.8-.22.8-.64v-8.53c0-.42-.26-.64-.8-.64h-6c-.54,0-.8.22-.8.64v8.53C96.45,484.59,96.71,484.81,97.25,484.81Z"/><path class="cls-2" d="M109.65,479.14c0-1.5.94-2.24,2.8-2.24h3.4v1.5H113c-.46,0-.7.18-.7.56v7.55h-2.6Z"/><path class="cls-2" d="M117.85,473.3h2.6v3.6h5.2c1.86,0,2.8.74,2.8,2.24v5.13c0,1.5-.94,2.24-2.8,2.24h-7.8Zm7.3,11.71c.46,0,.7-.18.7-.56V479c0-.38-.24-.56-.7-.56h-4.7V485Z"/><path class="cls-2" d="M131.05,473.3h2.6v2h-2.6Zm0,3.6h2.6v9.61h-2.6Z"/><path class="cls-2" d="M136.25,473.3h2.6v3.6h3.6v1.5h-3.6v6.05c0,.38.24.56.7.56h2.9v1.5h-3.4c-1.86,0-2.8-.74-2.8-2.24Z"/><path class="cls-2" d="M151.25,473.3h2.8v5.3h7.6v-5.3h2.8v13.21h-2.8v-6.2h-7.6v6.2h-2.8Z"/><path class="cls-2" d="M93.65,542.7q0-2.4,3-2.4h7.2q3,0,3,2.4v8.41q0,2.4-3,2.4h-7.2q-3,0-3-2.4Zm3.6,9.11h6c.54,0,.8-.22.8-.64v-8.53c0-.42-.26-.64-.8-.64h-6c-.54,0-.8.22-.8.64v8.53C96.45,551.59,96.71,551.81,97.25,551.81Z"/><path class="cls-2" d="M109.65,546.14c0-1.5.94-2.24,2.8-2.24h3.4v1.5H113c-.46,0-.7.18-.7.56v7.55h-2.6Z"/><path class="cls-2" d="M117.85,540.3h2.6v3.6h5.2c1.86,0,2.8.74,2.8,2.24v5.13c0,1.5-.94,2.24-2.8,2.24h-7.8Zm7.3,11.71c.46,0,.7-.18.7-.56V546c0-.38-.24-.56-.7-.56h-4.7V552Z"/><path class="cls-2" d="M131.05,540.3h2.6v2h-2.6Zm0,3.6h2.6v9.61h-2.6Z"/><path class="cls-2" d="M136.25,540.3h2.6v3.6h3.6v1.5h-3.6v6.05c0,.38.24.56.7.56h2.9v1.5h-3.4c-1.86,0-2.8-.74-2.8-2.24Z"/><path class="cls-2" d="M151.25,540.3h2.8v13.21h-2.8Z"/></g></g></svg>