<svg xmlns="http://www.w3.org/2000/svg" viewBox="0 0 310.7 247.35"><defs><style>.cls-1{fill:#10a4e1;}.cls-2{fill:#61479c;}.cls-3{fill:#e35832;}.cls-4{fill:#c42929;}.cls-5{fill:#13177a;}</style></defs><title>Icon</title><g id="Layer_2" data-name="Layer 2"><g id="Layer_1-2" data-name="Layer 1"><polygon class="cls-1" points="262.47 40.1 262.47 40.09 265.15 38.75 262.47 40.1"/><rect class="cls-1" x="50.72" y="139.88" width="10.3" height="3" transform="translate(-20.41 9.88) rotate(-8.55)"/><rect class="cls-1" x="66.65" y="129.36" width="7.46" height="3" transform="translate(-8.86 5.17) rotate(-3.96)"/><rect class="cls-1" x="82.24" y="118.35" width="3" height="5.78" transform="translate(-43.4 195.72) rotate(-85.73)"/><rect class="cls-1" x="96.77" y="108.73" width="3" height="6.04" transform="translate(-25.9 193.78) rotate(-82.12)"/><rect class="cls-1" x="111.73" y="99.21" width="3" height="5.63" transform="translate(-18.19 179.23) rotate(-72.45)"/><rect class="cls-1" x="127.08" y="91" width="3" height="4" transform="translate(-28.79 113.42) rotate(-43.27)"/><rect class="cls-1" x="143.07" y="82.02" width="3" height="4.23" transform="translate(-17.73 43.68) rotate(-16.2)"/><rect class="cls-1" x="158.36" y="74.16" width="4.84" height="3" transform="matrix(0.13, -0.99, 0.99, 0.13, 65.46, 225.63)"/><rect class="cls-1" x="173.96" y="65.8" width="6.19" height="3" transform="translate(49.05 206.91) rotate(-68.3)"/><rect class="cls-1" x="189.05" y="58.7" width="7.78" height="3" transform="translate(42.8 195.5) rotate(-59.35)"/><rect class="cls-1" x="203.56" y="52.6" width="8.34" height="3" transform="translate(37.07 184.31) rotate(-51.94)"/><rect class="cls-1" x="217.12" y="47.08" width="9.23" height="3" transform="translate(41.14 186.11) rotate(-49.65)"/><rect class="cls-1" x="229.16" y="42.57" width="11" height="3" transform="translate(37.69 179.02) rotate(-45.05)"/><rect class="cls-1" x="240.57" y="39.06" width="11.82" height="3" transform="translate(35.38 174.1) rotate(-41.66)"/><rect class="cls-1" x="252.25" y="36.02" width="13.75" height="3" transform="translate(38.62 178.7) rotate(-40.87)"/><rect class="cls-1" x="261.39" y="34.32" width="14.55" height="3" transform="translate(31.58 167.17) rotate(-36.58)"/><rect class="cls-1" x="268.76" y="33.3" width="17.42" height="3" transform="translate(31.12 167.14) rotate(-35.39)"/><rect class="cls-1" x="276.51" y="33.42" width="16.42" height="3" transform="translate(29.52 165.9) rotate(-34.16)"/><rect class="cls-1" x="281.72" y="34.68" width="17.35" height="3" transform="translate(25.78 161.15) rotate(-32.38)"/><rect class="cls-1" x="286.98" y="36.05" width="18.3" height="3" transform="matrix(0.85, -0.52, 0.52, 0.85, 24.06, 160.34)"/><rect class="cls-1" x="289.12" y="39.7" width="19.25" height="3" transform="translate(18.17 151.77) rotate(-29.36)"/><rect class="cls-1" x="291.24" y="43.48" width="19.25" height="3" transform="translate(14.1 146.52) rotate(-28)"/><rect class="cls-1" x="291.74" y="48.31" width="19.28" height="3" transform="translate(8.61 136.98) rotate(-25.96)"/><rect class="cls-1" x="289.67" y="54.59" width="18.34" height="3" transform="translate(4.39 131.92) rotate(-25.07)"/><rect class="cls-1" x="286.52" y="60.81" width="18.38" height="3" transform="translate(-0.17 123.83) rotate(-23.64)"/><rect class="cls-1" x="281.58" y="67.78" width="18.43" height="3" transform="translate(-4.59 115.22) rotate(-22.24)"/><rect class="cls-1" x="275.93" y="75.82" width="15.6" height="3" transform="translate(-9.3 102.15) rotate(-20.09)"/><rect class="cls-1" x="268.45" y="84.47" width="13.8" height="3" transform="translate(-13.1 83.85) rotate(-16.92)"/><rect class="cls-1" x="257.45" y="94.3" width="14.84" height="3" transform="translate(-16.15 76.74) rotate(-16)"/><rect class="cls-1" x="244.65" y="105.29" width="13.03" height="3" transform="translate(-17.65 59.6) rotate(-13.08)"/><rect class="cls-1" x="232.49" y="115.74" width="10.47" height="3" transform="translate(-11.28 26.38) rotate(-6.2)"/><rect class="cls-1" x="220.71" y="123.8" width="3" height="8.27" transform="translate(71.35 335.26) rotate(-83.89)"/><rect class="cls-1" x="202.21" y="136.78" width="3" height="6.8" transform="translate(13.98 298.77) rotate(-74.42)"/><rect class="cls-1" x="183.73" y="148.8" width="3" height="5.39" transform="translate(-49.64 197.27) rotate(-50.31)"/><rect class="cls-1" x="161.1" y="161.79" width="6.33" height="3" transform="translate(-20.41 303.08) rotate(-81.95)"/><rect class="cls-1" x="138.48" y="173.13" width="8.02" height="3" transform="translate(-78.46 219.13) rotate(-62.18)"/><rect class="cls-1" x="116.61" y="182.86" width="9.69" height="3" transform="matrix(0.56, -0.83, 0.83, 0.56, -99.3, 181.96)"/><rect class="cls-1" x="96.23" y="191.11" width="12.26" height="3" transform="translate(-110.15 143.45) rotate(-48.99)"/><rect class="cls-1" x="78.19" y="197.78" width="13.9" height="3" transform="translate(-113.99 113.78) rotate(-43.63)"/><rect class="cls-1" x="60.36" y="203.09" width="15.77" height="3" transform="translate(-119.21 97.93) rotate(-41.91)"/><rect class="cls-1" x="46.05" y="206.57" width="18.49" height="3" transform="translate(-116.15 77.85) rotate(-37.9)"/><rect class="cls-1" x="32.36" y="209.42" width="20.36" height="3" transform="translate(-117.01 66.56) rotate(-36.46)"/><rect class="cls-1" x="22.79" y="210.25" width="18.38" height="3" transform="translate(-115.87 56.82) rotate(-35.07)"/><rect class="cls-1" x="13.84" y="209.91" width="19.31" height="3" transform="translate(-114.51 49.54) rotate(-34.11)"/><rect class="cls-1" x="7.21" y="208.02" width="18.31" height="3" transform="translate(-109.22 41.01) rotate(-32.23)"/><rect class="cls-1" x="0.99" y="204.55" width="20.21" height="3" transform="translate(-101.6 33.19) rotate(-30.02)"/><rect class="cls-1" x="-0.52" y="199.9" width="20.21" height="3" transform="translate(-95.59 29.38) rotate(-28.72)"/><rect class="cls-1" x="0.36" y="193.76" width="19.27" height="3" transform="translate(-86.52 25.23) rotate(-26.65)"/><rect class="cls-1" x="3.67" y="185.98" width="19.36" height="3" transform="translate(-72.95 20.51) rotate(-23.26)"/><rect class="cls-1" x="9.87" y="177.78" width="16.49" height="3" transform="translate(-66.41 20.15) rotate(-22.21)"/><rect class="cls-1" x="17.92" y="168.9" width="14.69" height="3" transform="translate(-53.03 16.96) rotate(-18.6)"/><rect class="cls-1" x="27.73" y="159.05" width="13.8" height="3" transform="translate(-45.24 17.03) rotate(-16.92)"/><rect class="cls-1" x="38.95" y="149.85" width="11.92" height="3" transform="translate(-37.46 16.67) rotate(-14.92)"/><rect class="cls-2" x="154.65" y="-16.83" width="5" height="281" transform="translate(-40.45 92.95) rotate(-29.36)"/><polygon class="cls-3" points="167.12 125.97 153.94 133.12 141.16 125.28 141.56 110.28 154.74 103.13 167.52 110.98 167.12 125.97"/><path class="cls-3" d="M124.68,79.54a14.22,14.22,0,0,1-12.36-7.22,14.15,14.15,0,1,1,12.36,7.22Zm0-24.32a10.16,10.16,0,0,0-8.84,15.14h0a10.15,10.15,0,1,0,8.84-15.14Z"/><path class="cls-4" d="M108.83,46.54a8.23,8.23,0,0,1-7.17-4.18h0a8.23,8.23,0,1,1,7.17,4.18Zm-3.68-6.14a4.22,4.22,0,1,0,1.61-5.74,4.19,4.19,0,0,0-1.61,5.74Z"/><path class="cls-3" d="M96.91,22.11a4.79,4.79,0,0,1-1.35-.19,4.94,4.94,0,0,1-3-2.35h0a5,5,0,0,1,1.9-6.77,5,5,0,1,1,2.45,9.31Zm0-5.95a.93.93,0,0,0-.47.13,1,1,0,0,0-.37,1.32h0a.94.94,0,0,0,.59.46,1,1,0,0,0,.52-1.87A.91.91,0,0,0,96.89,16.16Z"/><path class="cls-3" d="M188.28,192.57a14.19,14.19,0,0,1-12.36-7.22h0a14.16,14.16,0,1,1,24.68-13.88,14.16,14.16,0,0,1-12.32,21.1Zm0-24.32a10.16,10.16,0,0,0-8.84,15.14h0a10.16,10.16,0,1,0,8.84-15.14Z"/><path class="cls-4" d="M203.17,214.2A8.21,8.21,0,0,1,196,210h0a8.22,8.22,0,1,1,7.17,4.18Zm-3.69-6.14a4.22,4.22,0,1,0,4.81-6.13,4.16,4.16,0,0,0-3.2.39,4.22,4.22,0,0,0-1.61,5.74Z"/><path class="cls-5" d="M153.9,197.25A78,78,0,1,1,221.75,81h0A78,78,0,0,1,153.9,197.25Zm-.23-146a68.14,68.14,0,1,0,18.43,2.54A68.49,68.49,0,0,0,153.67,51.24Z"/><path class="cls-3" d="M215.09,232.15a5,5,0,0,1-4.34-2.53h0a5,5,0,1,1,4.34,2.53Zm-.86-4.49a1,1,0,0,0,1.33.37,1,1,0,0,0,.45-.59.9.9,0,0,0-.08-.73,1,1,0,0,0-.59-.46.94.94,0,0,0-.74.09,1,1,0,0,0-.37,1.32Z"/><rect class="cls-1" x="130.7" y="116.39" width="47.01" height="3" transform="translate(-37.99 90.75) rotate(-29.36)"/></g></g></svg>