<svg xmlns="http://www.w3.org/2000/svg" viewBox="0 0 585.64 600.31"><defs><style>.cls-1{fill:#13177a;}.cls-2{fill:#10a4e1;}.cls-3{fill:#61479c;}.cls-4{fill:#e35832;}.cls-5{fill:#c42929;}</style></defs><title>Menu One</title><g id="Layer_2" data-name="Layer 2"><g id="Layer_1-2" data-name="Layer 1"><rect class="cls-1" x="328.64" y="53.81" width="257" height="48" rx="12"/><rect class="cls-1" x="328.64" y="120.81" width="257" height="48" rx="12"/><rect class="cls-1" x="328.64" y="187.81" width="257" height="48" rx="12"/><rect class="cls-1" x="328.64" y="254.81" width="257" height="48" rx="12"/><rect class="cls-1" x="328.64" y="321.81" width="257" height="48" rx="12"/><rect class="cls-1" x="328.64" y="388.81" width="257" height="48" rx="12"/><rect class="cls-1" x="328.64" y="455.81" width="257" height="48" rx="12"/><rect class="cls-1" x="328.64" y="522.81" width="257" height="48" rx="12"/><path class="cls-1" d="M328.74,600.31a12,12,0,0,1,11.9-10.5h233a12,12,0,0,1,11.9,10.5"/><path class="cls-1" d="M328.64.31v22.5a12,12,0,0,0,12,12h233a12,12,0,0,0,12-12V.31Zm155.13,6.2L486.39.9,489,6.51ZM449.09,3.4h4.7c.46,0,.7.18.7.56V9.45c0,.38-.24.56-.7.56h-4.7Z"/><path class="cls-2" d="M431.89,0h-6a.88.88,0,0,0-.64.2l7.31,0A.83.83,0,0,0,431.89,0Zm3.58.31s0,0,0-.07h-2.9a.35.35,0,0,1,.05.08.58.58,0,0,1,.08.33V9.17c0,.42-.26.64-.8.64h-6c-.54,0-.8-.22-.8-.64V.64a.58.58,0,0,1,.08-.33.28.28,0,0,1,.08-.11h-2.92s0,.08,0,.12,0,.25,0,.39V9.11q0,2.4,3,2.4h7.2q3,0,3-2.4V.7C435.49.56,435.48.43,435.47.31Z"/><path class="cls-2" d="M441.09,1.9c-1.86,0-2.8.74-2.8,2.24v7.37h2.6V4c0-.38.24-.56.7-.56h2.9V1.9Z"/><path class="cls-2" d="M454.29,1.9h-5.2V.29h-2.6V11.51h7.8c1.86,0,2.8-.74,2.8-2.24V4.14C457.09,2.64,456.15,1.9,454.29,1.9Zm.2,7.55c0,.38-.24.56-.7.56h-4.7V3.4h4.7c.46,0,.7.18.7.56Z"/><path class="cls-2" d="M459.69,1.9v9.61h2.6V1.9Z"/><path class="cls-2" d="M471.09,3.4V1.9h-3.6V.31h-2.6v9c0,1.5.94,2.24,2.8,2.24h3.4V10h-2.9c-.46,0-.7-.18-.7-.56v-6Z"/><path class="cls-2" d="M489,.44l-.06-.13h-5.08l-.05.11-5.21,11.09h2.84L483,8.21h6.84l1.54,3.3h2.84Zm-5.22,6.07L486.39.9,489,6.51Z"/><path class="cls-2" d="M422.29,73.7q0-2.4,3-2.4h7.21q3,0,3,2.4v8.41q0,2.4-3,2.4h-7.21q-3,0-3-2.4Zm3.61,9.11h6c.54,0,.8-.22.8-.64V73.64c0-.42-.26-.64-.8-.64h-6c-.55,0-.81.22-.81.64v8.53C425.09,82.59,425.35,82.81,425.9,82.81Z"/><path class="cls-2" d="M438.29,77.14c0-1.5.94-2.24,2.8-2.24h3.41v1.5h-2.91c-.46,0-.7.18-.7.56v7.55h-2.6Z"/><path class="cls-2" d="M446.49,71.3h2.6v3.6h5.21c1.86,0,2.8.74,2.8,2.24v5.13c0,1.5-.94,2.24-2.8,2.24h-7.81ZM453.8,83c.46,0,.7-.18.7-.56V77c0-.38-.24-.56-.7-.56h-4.71V83Z"/><path class="cls-2" d="M459.69,71.3h2.6v2h-2.6Zm0,3.6h2.6v9.61h-2.6Z"/><path class="cls-2" d="M464.89,71.3h2.6v3.6h3.6v1.5h-3.6v6c0,.38.24.56.7.56h2.9v1.5h-3.4c-1.86,0-2.8-.74-2.8-2.24Z"/><path class="cls-2" d="M479.89,71.3h9.61q3,0,3,2.4v1.58a2.08,2.08,0,0,1-1.3,2.12,2.1,2.1,0,0,1,1.5,2.21v2.5q0,2.4-3,2.4h-9.81Zm9,5.3c.54,0,.8-.22.8-.64V73.64c0-.42-.26-.64-.8-.64h-6.21v3.6Zm.2,6.21c.54,0,.8-.22.8-.64V79c0-.43-.26-.64-.8-.64h-6.41v4.5Z"/><path class="cls-2" d="M422.29,140.7q0-2.4,3-2.4h7.21q3,0,3,2.4v8.41q0,2.4-3,2.4h-7.21q-3,0-3-2.4Zm3.61,9.11h6c.54,0,.8-.22.8-.64v-8.53c0-.42-.26-.64-.8-.64h-6c-.55,0-.81.22-.81.64v8.53C425.09,149.59,425.35,149.81,425.9,149.81Z"/><path class="cls-2" d="M438.29,144.14c0-1.5.94-2.24,2.8-2.24h3.41v1.5h-2.91c-.46,0-.7.18-.7.56v7.55h-2.6Z"/><path class="cls-2" d="M446.49,138.3h2.6v3.6h5.21c1.86,0,2.8.74,2.8,2.24v5.13c0,1.5-.94,2.24-2.8,2.24h-7.81ZM453.8,150c.46,0,.7-.18.7-.56V144c0-.38-.24-.56-.7-.56h-4.71V150Z"/><path class="cls-2" d="M459.69,138.3h2.6v2h-2.6Zm0,3.6h2.6v9.61h-2.6Z"/><path class="cls-2" d="M464.89,138.3h2.6v3.6h3.6v1.5h-3.6v6c0,.38.24.56.7.56h2.9v1.5h-3.4c-1.86,0-2.8-.74-2.8-2.24Z"/><path class="cls-2" d="M479.89,140.7q0-2.4,3-2.4h9.21V140h-8.61c-.54,0-.8.22-.8.64v8.53c0,.42.26.64.8.64h8.61v1.7h-9.21q-3,0-3-2.4Z"/><path class="cls-2" d="M422.29,206.7q0-2.4,3-2.4h7.21q3,0,3,2.4v8.41q0,2.4-3,2.4h-7.21q-3,0-3-2.4Zm3.61,9.11h6c.54,0,.8-.22.8-.64v-8.53c0-.42-.26-.64-.8-.64h-6c-.55,0-.81.22-.81.64v8.53C425.09,215.59,425.35,215.81,425.9,215.81Z"/><path class="cls-2" d="M438.29,210.14c0-1.5.94-2.24,2.8-2.24h3.41v1.5h-2.91c-.46,0-.7.18-.7.56v7.55h-2.6Z"/><path class="cls-2" d="M446.49,204.3h2.6v3.6h5.21c1.86,0,2.8.74,2.8,2.24v5.13c0,1.5-.94,2.24-2.8,2.24h-7.81ZM453.8,216c.46,0,.7-.18.7-.56V210c0-.38-.24-.56-.7-.56h-4.71V216Z"/><path class="cls-2" d="M459.69,204.3h2.6v2h-2.6Zm0,3.6h2.6v9.61h-2.6Z"/><path class="cls-2" d="M464.89,204.3h2.6v3.6h3.6v1.5h-3.6v6c0,.38.24.56.7.56h2.9v1.5h-3.4c-1.86,0-2.8-.74-2.8-2.24Z"/><path class="cls-2" d="M479.89,204.3h6.8c4.27,0,6.41,1.7,6.41,5.12v3c0,3.42-2.14,5.12-6.41,5.12h-6.8Zm6.4,11.51c2.67,0,4-1.06,4-3.2V209.2c0-2.14-1.34-3.2-4-3.2h-3.6v9.81Z"/><path class="cls-2" d="M421.29,274.7q0-2.4,3-2.4h7.21q3,0,3,2.4v8.41q0,2.4-3,2.4h-7.21q-3,0-3-2.4Zm3.61,9.11h6c.54,0,.8-.22.8-.64v-8.53c0-.42-.26-.64-.8-.64h-6c-.55,0-.81.22-.81.64v8.53C424.09,283.59,424.35,283.81,424.9,283.81Z"/><path class="cls-2" d="M437.29,278.14c0-1.5.94-2.24,2.8-2.24h3.41v1.5h-2.91c-.46,0-.7.18-.7.56v7.55h-2.6Z"/><path class="cls-2" d="M445.49,272.3h2.6v3.6h5.21c1.86,0,2.8.74,2.8,2.24v5.13c0,1.5-.94,2.24-2.8,2.24h-7.81ZM452.8,284c.46,0,.7-.18.7-.56V278c0-.38-.24-.56-.7-.56h-4.71V284Z"/><path class="cls-2" d="M458.69,272.3h2.6v2h-2.6Zm0,3.6h2.6v9.61h-2.6Z"/><path class="cls-2" d="M463.89,272.3h2.6v3.6h3.6v1.5h-3.6v6.05c0,.38.24.56.7.56h2.9v1.5h-3.4c-1.86,0-2.8-.74-2.8-2.24Z"/><path class="cls-2" d="M478.89,272.3H491.1V274h-9.41v3.6h8.41v1.71h-8.41v4.5h9.41v1.7H478.89Z"/><path class="cls-2" d="M422.29,339.7q0-2.4,3-2.4h7.21q3,0,3,2.4v8.41q0,2.4-3,2.4h-7.21q-3,0-3-2.4Zm3.61,9.11h6c.54,0,.8-.22.8-.64v-8.53c0-.42-.26-.64-.8-.64h-6c-.55,0-.81.22-.81.64v8.53C425.09,348.59,425.35,348.81,425.9,348.81Z"/><path class="cls-2" d="M438.29,343.14c0-1.5.94-2.24,2.8-2.24h3.41v1.5h-2.91c-.46,0-.7.18-.7.56v7.55h-2.6Z"/><path class="cls-2" d="M446.49,337.3h2.6v3.6h5.21c1.86,0,2.8.74,2.8,2.24v5.13c0,1.5-.94,2.24-2.8,2.24h-7.81ZM453.8,349c.46,0,.7-.18.7-.56V343c0-.38-.24-.56-.7-.56h-4.71V349Z"/><path class="cls-2" d="M459.69,337.3h2.6v2h-2.6Zm0,3.6h2.6v9.61h-2.6Z"/><path class="cls-2" d="M464.89,337.3h2.6v3.6h3.6v1.5h-3.6v6.05c0,.38.24.56.7.56h2.9v1.5h-3.4c-1.86,0-2.8-.74-2.8-2.24Z"/><path class="cls-2" d="M479.89,337.3h12V339h-9.21v3.8h8.21v1.71h-8.21v6h-2.8Z"/><path class="cls-2" d="M422.29,408.7q0-2.4,3-2.4h7.21q3,0,3,2.4v8.41q0,2.4-3,2.4h-7.21q-3,0-3-2.4Zm3.61,9.11h6c.54,0,.8-.22.8-.64v-8.53c0-.42-.26-.64-.8-.64h-6c-.55,0-.81.22-.81.64v8.53C425.09,417.59,425.35,417.81,425.9,417.81Z"/><path class="cls-2" d="M438.29,412.14c0-1.5.94-2.24,2.8-2.24h3.41v1.5h-2.91c-.46,0-.7.18-.7.56v7.55h-2.6Z"/><path class="cls-2" d="M446.49,406.3h2.6v3.6h5.21c1.86,0,2.8.74,2.8,2.24v5.13c0,1.5-.94,2.24-2.8,2.24h-7.81ZM453.8,418c.46,0,.7-.18.7-.56V412c0-.38-.24-.56-.7-.56h-4.71V418Z"/><path class="cls-2" d="M459.69,406.3h2.6v2h-2.6Zm0,3.6h2.6v9.61h-2.6Z"/><path class="cls-2" d="M464.89,406.3h2.6v3.6h3.6v1.5h-3.6v6.05c0,.38.24.56.7.56h2.9v1.5h-3.4c-1.86,0-2.8-.74-2.8-2.24Z"/><path class="cls-2" d="M479.89,408.7q0-2.4,3-2.4h9.21V408h-8.61c-.54,0-.8.22-.8.64v8.53c0,.42.26.64.8.64h6.61v-4.5h-3.41V411.6h6.21v7.91h-10q-3,0-3-2.4Z"/><path class="cls-2" d="M422.29,475.7q0-2.4,3-2.4h7.21q3,0,3,2.4v8.41q0,2.4-3,2.4h-7.21q-3,0-3-2.4Zm3.61,9.11h6c.54,0,.8-.22.8-.64v-8.53c0-.42-.26-.64-.8-.64h-6c-.55,0-.81.22-.81.64v8.53C425.09,484.59,425.35,484.81,425.9,484.81Z"/><path class="cls-2" d="M438.29,479.14c0-1.5.94-2.24,2.8-2.24h3.41v1.5h-2.91c-.46,0-.7.18-.7.56v7.55h-2.6Z"/><path class="cls-2" d="M446.49,473.3h2.6v3.6h5.21c1.86,0,2.8.74,2.8,2.24v5.13c0,1.5-.94,2.24-2.8,2.24h-7.81ZM453.8,485c.46,0,.7-.18.7-.56V479c0-.38-.24-.56-.7-.56h-4.71V485Z"/><path class="cls-2" d="M459.69,473.3h2.6v2h-2.6Zm0,3.6h2.6v9.61h-2.6Z"/><path class="cls-2" d="M464.89,473.3h2.6v3.6h3.6v1.5h-3.6v6.05c0,.38.24.56.7.56h2.9v1.5h-3.4c-1.86,0-2.8-.74-2.8-2.24Z"/><path class="cls-2" d="M479.89,473.3h2.8v5.3h7.61v-5.3h2.8v13.21h-2.8v-6.2h-7.61v6.2h-2.8Z"/><path class="cls-2" d="M422.29,542.7q0-2.4,3-2.4h7.21q3,0,3,2.4v8.41q0,2.4-3,2.4h-7.21q-3,0-3-2.4Zm3.61,9.11h6c.54,0,.8-.22.8-.64v-8.53c0-.42-.26-.64-.8-.64h-6c-.55,0-.81.22-.81.64v8.53C425.09,551.59,425.35,551.81,425.9,551.81Z"/><path class="cls-2" d="M438.29,546.14c0-1.5.94-2.24,2.8-2.24h3.41v1.5h-2.91c-.46,0-.7.18-.7.56v7.55h-2.6Z"/><path class="cls-2" d="M446.49,540.3h2.6v3.6h5.21c1.86,0,2.8.74,2.8,2.24v5.13c0,1.5-.94,2.24-2.8,2.24h-7.81ZM453.8,552c.46,0,.7-.18.7-.56V546c0-.38-.24-.56-.7-.56h-4.71V552Z"/><path class="cls-2" d="M459.69,540.3h2.6v2h-2.6Zm0,3.6h2.6v9.61h-2.6Z"/><path class="cls-2" d="M464.89,540.3h2.6v3.6h3.6v1.5h-3.6v6.05c0,.38.24.56.7.56h2.9v1.5h-3.4c-1.86,0-2.8-.74-2.8-2.24Z"/><path class="cls-2" d="M479.89,540.3h2.8v13.21h-2.8Z"/><polygon class="cls-2" points="262.47 195.67 262.47 195.67 265.15 194.33 262.47 195.67"/><rect class="cls-2" x="50.72" y="295.46" width="10.3" height="3" transform="translate(-43.55 11.61) rotate(-8.55)"/><rect class="cls-2" x="66.65" y="284.93" width="7.46" height="3" transform="translate(-19.6 5.54) rotate(-3.96)"/><rect class="cls-2" x="82.24" y="273.93" width="3" height="5.78" transform="translate(-198.55 339.72) rotate(-85.73)"/><rect class="cls-2" x="96.77" y="264.31" width="3" height="6.04" transform="translate(-180 328.02) rotate(-82.12)"/><rect class="cls-2" x="111.73" y="254.78" width="3" height="5.63" transform="translate(-166.52 287.9) rotate(-72.45)"/><rect class="cls-2" x="127.08" y="246.57" width="3" height="4" transform="translate(-135.43 155.71) rotate(-43.27)"/><rect class="cls-2" x="143.07" y="237.59" width="3" height="4.23" transform="translate(-61.14 49.85) rotate(-16.2)"/><rect class="cls-2" x="158.36" y="229.74" width="4.84" height="3" transform="matrix(0.13, -0.99, 0.99, 0.13, -88.87, 361.61)"/><rect class="cls-2" x="173.96" y="221.37" width="6.19" height="3" transform="translate(-95.49 304.95) rotate(-68.3)"/><rect class="cls-2" x="189.05" y="214.27" width="7.78" height="3" transform="translate(-91.05 271.77) rotate(-59.35)"/><rect class="cls-2" x="203.56" y="208.18" width="8.34" height="3" transform="translate(-85.43 243.97) rotate(-51.94)"/><rect class="cls-2" x="217.12" y="202.66" width="9.23" height="3" transform="translate(-77.42 240.95) rotate(-49.65)"/><rect class="cls-2" x="229.16" y="198.14" width="11" height="3" transform="translate(-72.42 224.68) rotate(-45.05)"/><rect class="cls-2" x="240.57" y="194.64" width="11.82" height="3" transform="translate(-68.04 213.45) rotate(-41.66)"/><rect class="cls-2" x="252.25" y="191.59" width="13.75" height="3" transform="translate(-63.17 216.62) rotate(-40.87)"/><rect class="cls-2" x="261.39" y="189.9" width="14.55" height="3" transform="translate(-61.14 197.82) rotate(-36.58)"/><rect class="cls-2" x="268.76" y="188.88" width="17.42" height="3" transform="translate(-58.98 195.88) rotate(-35.39)"/><rect class="cls-2" x="276.51" y="189" width="16.42" height="3" transform="translate(-57.84 192.74) rotate(-34.16)"/><rect class="cls-2" x="281.72" y="190.26" width="17.35" height="3" transform="translate(-57.54 185.34) rotate(-32.38)"/><rect class="cls-2" x="286.98" y="191.62" width="18.3" height="3" transform="matrix(0.85, -0.52, 0.52, 0.85, -57.27, 183.29)"/><rect class="cls-2" x="289.12" y="195.27" width="19.25" height="3" transform="translate(-58.11 171.75) rotate(-29.36)"/><rect class="cls-2" x="291.24" y="199.06" width="19.25" height="3" transform="translate(-58.94 164.73) rotate(-28)"/><rect class="cls-2" x="291.74" y="203.89" width="19.28" height="3" transform="translate(-59.5 152.68) rotate(-25.96)"/><rect class="cls-2" x="289.67" y="210.17" width="18.34" height="3" transform="translate(-61.54 146.58) rotate(-25.07)"/><rect class="cls-2" x="286.52" y="216.39" width="18.38" height="3" transform="translate(-62.56 136.89) rotate(-23.64)"/><rect class="cls-2" x="281.58" y="223.35" width="18.43" height="3" transform="translate(-63.47 126.8) rotate(-22.24)"/><rect class="cls-2" x="275.93" y="231.39" width="15.6" height="3" transform="translate(-62.73 111.61) rotate(-20.09)"/><rect class="cls-2" x="268.45" y="240.05" width="13.8" height="3" transform="translate(-58.38 90.59) rotate(-16.92)"/><rect class="cls-2" x="257.45" y="249.88" width="14.84" height="3" transform="translate(-59.04 82.77) rotate(-16)"/><rect class="cls-2" x="244.65" y="260.86" width="13.03" height="3" transform="translate(-52.85 63.63) rotate(-13.08)"/><rect class="cls-2" x="232.49" y="271.31" width="10.47" height="3" transform="translate(-28.09 27.29) rotate(-6.2)"/><rect class="cls-2" x="220.71" y="279.37" width="3" height="8.27" transform="translate(-83.34 474.27) rotate(-83.89)"/><rect class="cls-2" x="202.21" y="292.36" width="3" height="6.8" transform="translate(-135.88 412.57) rotate(-74.42)"/><rect class="cls-2" x="183.73" y="304.38" width="3" height="5.39" transform="translate(-169.36 253.49) rotate(-50.31)"/><rect class="cls-2" x="161.1" y="317.37" width="6.33" height="3" transform="translate(-174.46 436.88) rotate(-81.95)"/><rect class="cls-2" x="138.48" y="328.7" width="8.02" height="3" transform="translate(-216.05 302.08) rotate(-62.18)"/><rect class="cls-2" x="116.61" y="338.43" width="9.69" height="3" transform="matrix(0.56, -0.83, 0.83, 0.56, -228.28, 250.54)"/><rect class="cls-2" x="96.23" y="346.69" width="12.26" height="3" transform="translate(-227.54 196.93) rotate(-48.99)"/><rect class="cls-2" x="78.19" y="353.36" width="13.9" height="3" transform="translate(-221.33 156.75) rotate(-43.63)"/><rect class="cls-2" x="60.36" y="358.67" width="15.77" height="3" transform="translate(-223.13 137.73) rotate(-41.91)"/><rect class="cls-2" x="46.05" y="362.15" width="18.49" height="3" transform="translate(-211.72 110.67) rotate(-37.9)"/><rect class="cls-2" x="32.36" y="365" width="20.36" height="3" transform="translate(-209.46 97.01) rotate(-36.46)"/><rect class="cls-2" x="22.79" y="365.83" width="18.38" height="3" transform="translate(-205.26 85.07) rotate(-35.07)"/><rect class="cls-2" x="13.84" y="365.48" width="19.31" height="3" transform="translate(-201.75 76.31) rotate(-34.11)"/><rect class="cls-2" x="7.21" y="363.59" width="18.31" height="3" transform="translate(-192.19 64.98) rotate(-32.23)"/><rect class="cls-2" x="0.99" y="360.13" width="20.21" height="3" transform="translate(-179.44 54.07) rotate(-30.02)"/><rect class="cls-2" x="-0.52" y="355.47" width="20.21" height="3" transform="translate(-170.34 48.51) rotate(-28.72)"/><rect class="cls-2" x="0.36" y="349.34" width="19.27" height="3" transform="translate(-156.29 41.75) rotate(-26.65)"/><rect class="cls-2" x="3.67" y="341.55" width="19.36" height="3" transform="translate(-134.39 33.15) rotate(-23.26)"/><rect class="cls-2" x="9.87" y="333.36" width="16.49" height="3" transform="translate(-125.21 31.69) rotate(-22.21)"/><rect class="cls-2" x="17.92" y="324.48" width="14.69" height="3" transform="translate(-102.65 25.09) rotate(-18.6)"/><rect class="cls-2" x="27.73" y="314.62" width="13.8" height="3" transform="translate(-90.53 23.77) rotate(-16.92)"/><rect class="cls-2" x="38.95" y="305.42" width="11.92" height="3" transform="translate(-77.52 21.92) rotate(-14.92)"/><rect class="cls-3" x="154.65" y="138.75" width="5" height="281" transform="translate(-116.74 112.94) rotate(-29.36)"/><polygon class="cls-4" points="167.12 281.55 153.94 288.69 141.16 280.85 141.56 265.86 154.74 258.71 167.52 266.55 167.12 281.55"/><path class="cls-4" d="M124.68,235.12a14.33,14.33,0,0,1-3.83-.53,14,14,0,1,1,3.83.53Zm0-24.33a10.17,10.17,0,0,0-8.84,15.15h0a10.16,10.16,0,1,0,11.59-14.77A10.42,10.42,0,0,0,124.65,210.79Z"/><path class="cls-5" d="M108.83,202.12a8.22,8.22,0,0,1-7.17-4.19h0A8.22,8.22,0,0,1,111,186a8.22,8.22,0,0,1-2.21,16.13ZM105.15,196a4.23,4.23,0,0,0,5.74,1.61,4.21,4.21,0,0,0,2-2.54,4.22,4.22,0,0,0-6.12-4.81,4.22,4.22,0,0,0-1.61,5.74Z"/><path class="cls-4" d="M96.91,177.68a5.16,5.16,0,0,1-1.35-.18,5,5,0,0,1-3-2.35h0a5,5,0,1,1,4.35,2.53Zm0-5.94a1,1,0,0,0-.47.12,1,1,0,0,0-.46.59,1,1,0,0,0,.09.74h0a1,1,0,0,0,.59.46,1,1,0,0,0,.73-.09,1,1,0,0,0,.37-1.33,1,1,0,0,0-.58-.46A1.57,1.57,0,0,0,96.89,171.74Z"/><path class="cls-4" d="M188.28,348.15a14.45,14.45,0,0,1-3.84-.53,14.07,14.07,0,0,1-8.52-6.69h0a14.16,14.16,0,0,1,5.39-19.29,14.16,14.16,0,1,1,7,26.51Zm0-24.32A10.16,10.16,0,0,0,179.4,339h0a10.16,10.16,0,1,0,8.84-15.14Z"/><path class="cls-5" d="M203.17,369.78a8.2,8.2,0,0,1-7.17-4.19h0a8.21,8.21,0,1,1,11.18,3.13A8.11,8.11,0,0,1,203.17,369.78Zm-3.69-6.15a4.22,4.22,0,1,0,4.81-6.12,4.16,4.16,0,0,0-3.2.38,4.22,4.22,0,0,0-1.61,5.74Z"/><path class="cls-1" d="M153.9,352.83a78,78,0,1,1,67.85-116.24h0A78,78,0,0,1,153.9,352.83Zm-.23-146a68.21,68.21,0,1,0,18.43,2.55A68.5,68.5,0,0,0,153.67,206.81Z"/><path class="cls-4" d="M215.09,387.73a5,5,0,0,1-4.34-2.53h0a5,5,0,0,1,5.67-7.23,4.93,4.93,0,0,1,3,2.35,5,5,0,0,1-4.32,7.41Zm-.86-4.5A1,1,0,0,0,216,383a.93.93,0,0,0-.08-.74,1,1,0,0,0-.59-.46,1,1,0,0,0-.74.09,1,1,0,0,0-.37,1.32Z"/><rect class="cls-2" x="130.7" y="271.97" width="47.01" height="3" transform="translate(-114.27 110.74) rotate(-29.36)"/></g></g></svg>