<svg xmlns="http://www.w3.org/2000/svg" viewBox="0 0 1169.68 545.67"><defs><style>.cls-1{opacity:0.5;}.cls-2{fill:#10a4e1;}.cls-3{fill:#13177a;}.cls-4{fill:#61479c;}.cls-5{fill:#e35832;}</style></defs><title>Menu Box</title><g id="Layer_2" data-name="Layer 2"><g id="Layer_1-2" data-name="Layer 1"><g class="cls-1"><polygon class="cls-2" points="33.81 89 69.81 42 1101.81 42 1157.87 119 1157.87 444.88 1110.81 521 75.81 523 17.81 445.5 17.57 83.82 33.81 89"/></g><polygon class="cls-3" points="703.17 523.03 464.51 523.03 487.15 545.67 680.53 545.67 703.17 523.03"/><polygon class="cls-3" points="703.07 513.98 680.53 491.99 487.15 491.99 464.63 513.98 703.07 513.98"/><polygon class="cls-3" points="1011.81 34 1011.81 48 761.81 48 726.81 83 427.81 83 392.81 48 155.81 48 155.81 34 392.98 34 427.81 0 726.81 0 761.64 34 1011.81 34"/><rect class="cls-3" x="160.81" y="514" width="856" height="14"/><polygon class="cls-4" points="155.81 24 155.81 57 78.22 57 38.82 111.9 37.81 111.18 9.57 90.91 56.81 24 155.81 24"/><polygon class="cls-4" points="160.81 537 61.81 537 14.57 470.09 43.82 449.1 83.22 504 160.81 504 160.81 537"/><polygon class="cls-4" points="1011.81 24 1110.81 24 1158.05 90.91 1128.8 111.9 1089.4 57 1011.81 57 1011.81 24"/><polygon class="cls-4" points="1016.81 537 1115.81 537 1163.05 470.09 1133.8 449.1 1094.4 504 1016.81 504 1016.81 537"/><polyline class="cls-2" points="2.81 112 26.81 132 26.81 438 2.81 453"/><polyline class="cls-2" points="1166.87 109 1142.87 129 1142.87 435 1166.87 450"/><polygon class="cls-3" points="31.04 164.5 31.04 403.16 53.68 380.52 53.68 187.14 31.04 164.5"/><polygon class="cls-3" points="21.99 164.6 0 187.14 0 380.52 21.99 403.05 21.99 164.6"/><line class="cls-3" x1="42.36" y1="175.82" x2="42.36" y2="391.84"/><line class="cls-3" x1="11.36" y1="175.82" x2="11.36" y2="391.84"/><polygon class="cls-3" points="1147.04 170.5 1147.04 409.16 1169.68 386.52 1169.68 193.14 1147.04 170.5"/><polygon class="cls-3" points="1137.99 170.6 1116 193.14 1116 386.52 1137.99 409.05 1137.99 170.6"/><line class="cls-3" x1="1158.36" y1="181.82" x2="1158.36" y2="397.84"/><line class="cls-3" x1="1127.36" y1="181.82" x2="1127.36" y2="397.84"/><path class="cls-2" d="M513.91,25.71h7.19l10,20.95,10-20.95h7.2V52.1h-5.6V33.67L533.9,52.1h-5.6l-8.8-18.43V52.1h-5.59Z"/><path class="cls-2" d="M554.31,25.71H578.7v3.4H559.9v7.2h16.8V39.7H559.9v9h18.8v3.4H554.31Z"/><path class="cls-2" d="M583.9,25.71h6.4l14.8,19.51V25.71h5.6V52.1h-6.4L589.5,32.59V52.1h-5.6Z"/><path class="cls-2" d="M616.7,25.71h5.6V47.42c0,.84.52,1.28,1.6,1.28h12c1.08,0,1.6-.44,1.6-1.28V25.71h5.6V47.3q0,4.8-6,4.8H622.7q-6,0-6-4.8Z"/><path class="cls-3" d="M142.78,144.91h28.7v3.49H160V172h-5.74V148.4H142.78Z"/><path class="cls-3" d="M172.71,156.88c0-3.07,1.92-4.59,5.74-4.59h9.43c3.81,0,5.74,1.52,5.74,4.59v6.28H178v4.59c0,.78.49,1.15,1.43,1.15H192.8V172H178.45c-3.82,0-5.74-1.51-5.74-4.59Zm15.58,3.2v-3.56c0-.78-.49-1.15-1.44-1.15h-7.38c-.94,0-1.43.37-1.43,1.15v3.56Z"/><path class="cls-3" d="M205.38,162l-8.69-9.72h6l5.66,6.36,5.66-6.36h6L211.37,162l8.9,10h-6l-5.86-6.56L202.51,172h-6Z"/><path class="cls-3" d="M223.55,144.91h5.33v7.38h7.38v3.08h-7.38v12.38c0,.78.49,1.15,1.43,1.15h5.95V172h-7c-3.82,0-5.74-1.51-5.74-4.59Z"/><path class="cls-3" d="M253.89,144.91h5.33v7.38h10.66c3.81,0,5.74,1.52,5.74,4.59V172h-5.33V156.52c0-.78-.5-1.15-1.44-1.15h-9.63V172h-5.33Z"/><path class="cls-3" d="M281,156.88c0-3.07,1.92-4.59,5.74-4.59h9.43c3.81,0,5.74,1.52,5.74,4.59v6.28H286.28v4.59c0,.78.49,1.15,1.43,1.15H301V172H286.69c-3.82,0-5.74-1.51-5.74-4.59Zm15.58,3.2v-3.56c0-.78-.5-1.15-1.44-1.15h-7.38c-.94,0-1.43.37-1.43,1.15v3.56Z"/><path class="cls-3" d="M307.19,156.88c0-3.07,1.92-4.59,5.74-4.59h7v3.08H314c-.94,0-1.43.37-1.43,1.15V172h-5.33Z"/><path class="cls-3" d="M324,156.88c0-3.07,1.92-4.59,5.74-4.59h9.43c3.81,0,5.74,1.52,5.74,4.59v6.28H329.33v4.59c0,.78.49,1.15,1.43,1.15h13.33V172H329.74c-3.82,0-5.74-1.51-5.74-4.59Zm15.58,3.2v-3.56c0-.78-.5-1.15-1.44-1.15h-7.38c-.94,0-1.43.37-1.43,1.15v3.56Z"/><circle class="cls-5" cx="586.35" cy="531.7" r="1.25"/><path class="cls-5" d="M586.35,534.05a2.36,2.36,0,1,1,2.35-2.35A2.36,2.36,0,0,1,586.35,534.05Zm0-2.5a.15.15,0,0,0-.15.15c0,.16.29.16.29,0A.15.15,0,0,0,586.35,531.55Z"/><path class="cls-5" d="M584.33,524.1c-.22-4.1.7-7.4,2.73-9.83a11.35,11.35,0,0,1,4.67-3.19c1.33-.57,2-.89,2.53-1.79,1.21-2,.54-5.17-.7-7.09a7.33,7.33,0,0,0-4.5-3.18,6.75,6.75,0,0,0-3.66.3,8.8,8.8,0,0,0-4.69,4.21l-3.91-2a13,13,0,0,1,7.16-6.34,11.1,11.1,0,0,1,6-.45,11.72,11.72,0,0,1,7.35,5.11c1.94,3,3,8,.78,11.74a8.69,8.69,0,0,1-4.59,3.6,7.11,7.11,0,0,0-3,2c-1.29,1.54-1.87,3.81-1.71,6.75Z"/><path class="cls-5" d="M576.57,541.05a1,1,0,0,1-.78-.3h0c-1.4-1.61,4.84-7.77,8.34-10.8a55.56,55.56,0,0,1,7.44-5.55c3.59-2.14,4.22-1.42,4.42-1.18,1.4,1.61-4.84,7.77-8.33,10.8C584.61,536.67,578.9,541.05,576.57,541.05Zm-.23-.78c.44.5,4.66-1.45,10.83-6.81s8.7-9.26,8.27-9.76c-.11-.13-1-.16-3.49,1.33a54.14,54.14,0,0,0-7.34,5.48c-6.18,5.36-8.7,9.26-8.27,9.76Z"/><path class="cls-5" d="M595.63,540.63c-2.33,0-8-4.38-11.09-7-3.49-3-9.73-9.19-8.33-10.8.2-.23.83-1,4.42,1.18a55.56,55.56,0,0,1,7.44,5.55c3.5,3,9.74,9.2,8.34,10.81h0A1,1,0,0,1,595.63,540.63ZM577,523.23c-.13,0-.2,0-.23.06-.43.5,2.09,4.4,8.27,9.76s10.39,7.3,10.82,6.8h0c.44-.5-2.08-4.4-8.26-9.76a54,54,0,0,0-7.34-5.47A7.85,7.85,0,0,0,577,523.23Z"/></g></g></svg>