<?xml version="1.0" encoding="utf-8"?>
<!-- Generator: Adobe Illustrator 23.0.1, SVG Export Plug-In . SVG Version: 6.00 Build 0)  -->
<svg version="1.1" id="Layer_1" xmlns="http://www.w3.org/2000/svg" xmlns:xlink="http://www.w3.org/1999/xlink" x="0px" y="0px"
	 viewBox="0 0 1200 600" style="enable-background:new 0 0 1200 600;" xml:space="preserve">
<style type="text/css">
	.st0{fill:#13177A;}
	.st1{fill:#10A4E1;}
	.st2{fill:#61479C;}
	.st3{fill:#E35832;}
	.st4{fill:#C42929;}
</style>
<g>
	<g>
		<path class="st0" d="M599,102H366c-6.6,0-12-5.4-12-12V66c0-6.6,5.4-12,12-12h233c6.6,0,12,5.4,12,12v24
			C611,96.6,605.6,102,599,102z"/>
	</g>
	<g>
		<path class="st0" d="M599,169H366c-6.6,0-12-5.4-12-12v-24c0-6.6,5.4-12,12-12h233c6.6,0,12,5.4,12,12v24
			C611,163.6,605.6,169,599,169z"/>
	</g>
	<g>
		<path class="st0" d="M599,236H366c-6.6,0-12-5.4-12-12v-24c0-6.6,5.4-12,12-12h233c6.6,0,12,5.4,12,12v24
			C611,230.6,605.6,236,599,236z"/>
	</g>
	<g>
		<path class="st0" d="M599,303H366c-6.6,0-12-5.4-12-12v-24c0-6.6,5.4-12,12-12h233c6.6,0,12,5.4,12,12v24
			C611,297.6,605.6,303,599,303z"/>
	</g>
	<g>
		<path class="st0" d="M599,370H366c-6.6,0-12-5.4-12-12v-24c0-6.6,5.4-12,12-12h233c6.6,0,12,5.4,12,12v24
			C611,364.6,605.6,370,599,370z"/>
	</g>
	<g>
		<path class="st0" d="M599,437H366c-6.6,0-12-5.4-12-12v-24c0-6.6,5.4-12,12-12h233c6.6,0,12,5.4,12,12v24
			C611,431.6,605.6,437,599,437z"/>
	</g>
	<g>
		<path class="st0" d="M599,504H366c-6.6,0-12-5.4-12-12v-24c0-6.6,5.4-12,12-12h233c6.6,0,12,5.4,12,12v24
			C611,498.6,605.6,504,599,504z"/>
	</g>
	<g>
		<path class="st0" d="M599,571H366c-6.6,0-12-5.4-12-12v-24c0-6.6,5.4-12,12-12h233c6.6,0,12,5.4,12,12v24
			C611,565.6,605.6,571,599,571z"/>
	</g>
	<g>
		<path class="st0" d="M354.1,600.5c0.7-5.9,5.8-10.5,11.9-10.5h233c6.1,0,11.2,4.6,11.9,10.5"/>
	</g>
	<g>
		<path class="st0" d="M354,0.5V23c0,6.6,5.4,12,12,12h233c6.6,0,12-5.4,12-12V0.5H354z M509.1,6.7l2.6-5.6l2.6,5.6H509.1z
			 M474.5,3.6h4.7c0.5,0,0.7,0.2,0.7,0.6v5.5c0,0.4-0.2,0.6-0.7,0.6h-4.7V3.6z"/>
	</g>
	<g>
		<g>
			<path class="st1" d="M457.2,0.2h-6c-0.3,0-0.5,0.1-0.6,0.2l7.3,0C457.8,0.3,457.6,0.2,457.2,0.2z M460.8,0.5
				C460.8,0.5,460.8,0.5,460.8,0.5l-2.9-0.1c0,0,0,0,0,0.1c0.1,0.1,0.1,0.2,0.1,0.3v8.5c0,0.4-0.3,0.6-0.8,0.6h-6
				c-0.5,0-0.8-0.2-0.8-0.6V0.8c0-0.1,0-0.2,0.1-0.3c0,0,0-0.1,0.1-0.1l-2.9,0c0,0,0,0.1,0,0.1c0,0.1,0,0.2,0,0.4v8.4
				c0,1.6,1,2.4,3,2.4h7.2c2,0,3-0.8,3-2.4V0.9C460.8,0.8,460.8,0.6,460.8,0.5z"/>
		</g>
		<g>
			<path class="st1" d="M466.5,2.1c-1.9,0-2.8,0.7-2.8,2.2v7.4h2.6V4.1c0-0.4,0.2-0.6,0.7-0.6h2.9V2.1H466.5z"/>
		</g>
		<g>
			<path class="st1" d="M479.7,2.1h-5.2V0.5l-2.6,0v11.2h7.8c1.9,0,2.8-0.7,2.8-2.2V4.3C482.5,2.8,481.5,2.1,479.7,2.1z M479.8,9.6
				c0,0.4-0.2,0.6-0.7,0.6h-4.7V3.6h4.7c0.5,0,0.7,0.2,0.7,0.6V9.6z"/>
		</g>
		<g>
			<path class="st1" d="M485,2.1v9.6h2.6V2.1H485z"/>
		</g>
		<g>
			<path class="st1" d="M496.5,3.6V2.1h-3.6V0.5h-2.6v9c0,1.5,0.9,2.2,2.8,2.2h3.4v-1.5h-2.9c-0.5,0-0.7-0.2-0.7-0.6V3.6H496.5z"/>
		</g>
		<g>
			<path class="st1" d="M514.3,0.6l-0.1-0.1h-5.1l-0.1,0.1L504,11.7h2.8l1.5-3.3h6.8l1.5,3.3h2.8L514.3,0.6z M509.1,6.7l2.6-5.6
				l2.6,5.6H509.1z"/>
		</g>
	</g>
	<g>
		<g>
			<path class="st1" d="M447.7,73.9c0-1.6,1-2.4,3-2.4h7.2c2,0,3,0.8,3,2.4v8.4c0,1.6-1,2.4-3,2.4h-7.2c-2,0-3-0.8-3-2.4V73.9z
				 M451.3,83h6c0.5,0,0.8-0.2,0.8-0.6v-8.5c0-0.4-0.3-0.6-0.8-0.6h-6c-0.5,0-0.8,0.2-0.8,0.6v8.5C450.5,82.8,450.7,83,451.3,83z"/>
		</g>
		<g>
			<path class="st1" d="M463.7,77.3c0-1.5,0.9-2.2,2.8-2.2h3.4v1.5H467c-0.5,0-0.7,0.2-0.7,0.6v7.5h-2.6V77.3z"/>
		</g>
		<g>
			<path class="st1" d="M471.9,71.5h2.6v3.6h5.2c1.9,0,2.8,0.7,2.8,2.2v5.1c0,1.5-0.9,2.2-2.8,2.2h-7.8V71.5z M479.2,83.2
				c0.5,0,0.7-0.2,0.7-0.6v-5.5c0-0.4-0.2-0.6-0.7-0.6h-4.7v6.6H479.2z"/>
		</g>
		<g>
			<path class="st1" d="M485.1,71.5h2.6v2h-2.6V71.5z M485.1,75.1h2.6v9.6h-2.6V75.1z"/>
		</g>
		<g>
			<path class="st1" d="M490.3,71.5h2.6v3.6h3.6v1.5h-3.6v6c0,0.4,0.2,0.6,0.7,0.6h2.9v1.5h-3.4c-1.9,0-2.8-0.7-2.8-2.2V71.5z"/>
		</g>
		<g>
			<path class="st1" d="M505.3,71.5h9.6c2,0,3,0.8,3,2.4v1.6c0,1.1-0.4,1.8-1.3,2.1c1,0.3,1.5,1.1,1.5,2.2v2.5c0,1.6-1,2.4-3,2.4
				h-9.8V71.5z M514.3,76.8c0.5,0,0.8-0.2,0.8-0.6v-2.3c0-0.4-0.3-0.6-0.8-0.6h-6.2v3.6H514.3z M514.5,83c0.5,0,0.8-0.2,0.8-0.6
				v-3.2c0-0.4-0.3-0.6-0.8-0.6h-6.4V83H514.5z"/>
		</g>
	</g>
	<g>
		<g>
			<path class="st1" d="M447.7,140.9c0-1.6,1-2.4,3-2.4h7.2c2,0,3,0.8,3,2.4v8.4c0,1.6-1,2.4-3,2.4h-7.2c-2,0-3-0.8-3-2.4V140.9z
				 M451.3,150h6c0.5,0,0.8-0.2,0.8-0.6v-8.5c0-0.4-0.3-0.6-0.8-0.6h-6c-0.5,0-0.8,0.2-0.8,0.6v8.5C450.5,149.8,450.7,150,451.3,150
				z"/>
		</g>
		<g>
			<path class="st1" d="M463.7,144.3c0-1.5,0.9-2.2,2.8-2.2h3.4v1.5H467c-0.5,0-0.7,0.2-0.7,0.6v7.5h-2.6V144.3z"/>
		</g>
		<g>
			<path class="st1" d="M471.9,138.5h2.6v3.6h5.2c1.9,0,2.8,0.7,2.8,2.2v5.1c0,1.5-0.9,2.2-2.8,2.2h-7.8V138.5z M479.2,150.2
				c0.5,0,0.7-0.2,0.7-0.6v-5.5c0-0.4-0.2-0.6-0.7-0.6h-4.7v6.6H479.2z"/>
		</g>
		<g>
			<path class="st1" d="M485.1,138.5h2.6v2h-2.6V138.5z M485.1,142.1h2.6v9.6h-2.6V142.1z"/>
		</g>
		<g>
			<path class="st1" d="M490.3,138.5h2.6v3.6h3.6v1.5h-3.6v6c0,0.4,0.2,0.6,0.7,0.6h2.9v1.5h-3.4c-1.9,0-2.8-0.7-2.8-2.2V138.5z"/>
		</g>
		<g>
			<path class="st1" d="M505.3,140.9c0-1.6,1-2.4,3-2.4h9.2v1.7h-8.6c-0.5,0-0.8,0.2-0.8,0.6v8.5c0,0.4,0.3,0.6,0.8,0.6h8.6v1.7
				h-9.2c-2,0-3-0.8-3-2.4V140.9z"/>
		</g>
	</g>
	<g>
		<g>
			<path class="st1" d="M447.7,206.9c0-1.6,1-2.4,3-2.4h7.2c2,0,3,0.8,3,2.4v8.4c0,1.6-1,2.4-3,2.4h-7.2c-2,0-3-0.8-3-2.4V206.9z
				 M451.3,216h6c0.5,0,0.8-0.2,0.8-0.6v-8.5c0-0.4-0.3-0.6-0.8-0.6h-6c-0.5,0-0.8,0.2-0.8,0.6v8.5C450.5,215.8,450.7,216,451.3,216
				z"/>
		</g>
		<g>
			<path class="st1" d="M463.7,210.3c0-1.5,0.9-2.2,2.8-2.2h3.4v1.5H467c-0.5,0-0.7,0.2-0.7,0.6v7.5h-2.6V210.3z"/>
		</g>
		<g>
			<path class="st1" d="M471.9,204.5h2.6v3.6h5.2c1.9,0,2.8,0.7,2.8,2.2v5.1c0,1.5-0.9,2.2-2.8,2.2h-7.8V204.5z M479.2,216.2
				c0.5,0,0.7-0.2,0.7-0.6v-5.5c0-0.4-0.2-0.6-0.7-0.6h-4.7v6.6H479.2z"/>
		</g>
		<g>
			<path class="st1" d="M485.1,204.5h2.6v2h-2.6V204.5z M485.1,208.1h2.6v9.6h-2.6V208.1z"/>
		</g>
		<g>
			<path class="st1" d="M490.3,204.5h2.6v3.6h3.6v1.5h-3.6v6c0,0.4,0.2,0.6,0.7,0.6h2.9v1.5h-3.4c-1.9,0-2.8-0.7-2.8-2.2V204.5z"/>
		</g>
		<g>
			<path class="st1" d="M505.3,204.5h6.8c4.3,0,6.4,1.7,6.4,5.1v3c0,3.4-2.1,5.1-6.4,5.1h-6.8V204.5z M511.7,216c2.7,0,4-1.1,4-3.2
				v-3.4c0-2.1-1.3-3.2-4-3.2h-3.6v9.8H511.7z"/>
		</g>
	</g>
	<g>
		<g>
			<path class="st1" d="M446.7,274.9c0-1.6,1-2.4,3-2.4h7.2c2,0,3,0.8,3,2.4v8.4c0,1.6-1,2.4-3,2.4h-7.2c-2,0-3-0.8-3-2.4V274.9z
				 M450.3,284h6c0.5,0,0.8-0.2,0.8-0.6v-8.5c0-0.4-0.3-0.6-0.8-0.6h-6c-0.5,0-0.8,0.2-0.8,0.6v8.5C449.5,283.8,449.7,284,450.3,284
				z"/>
		</g>
		<g>
			<path class="st1" d="M462.7,278.3c0-1.5,0.9-2.2,2.8-2.2h3.4v1.5H466c-0.5,0-0.7,0.2-0.7,0.6v7.5h-2.6V278.3z"/>
		</g>
		<g>
			<path class="st1" d="M470.9,272.5h2.6v3.6h5.2c1.9,0,2.8,0.7,2.8,2.2v5.1c0,1.5-0.9,2.2-2.8,2.2h-7.8V272.5z M478.2,284.2
				c0.5,0,0.7-0.2,0.7-0.6v-5.5c0-0.4-0.2-0.6-0.7-0.6h-4.7v6.6H478.2z"/>
		</g>
		<g>
			<path class="st1" d="M484.1,272.5h2.6v2h-2.6V272.5z M484.1,276.1h2.6v9.6h-2.6V276.1z"/>
		</g>
		<g>
			<path class="st1" d="M489.3,272.5h2.6v3.6h3.6v1.5h-3.6v6c0,0.4,0.2,0.6,0.7,0.6h2.9v1.5h-3.4c-1.9,0-2.8-0.7-2.8-2.2V272.5z"/>
		</g>
		<g>
			<path class="st1" d="M504.3,272.5h12.2v1.7h-9.4v3.6h8.4v1.7h-8.4v4.5h9.4v1.7h-12.2V272.5z"/>
		</g>
	</g>
	<g>
		<g>
			<path class="st1" d="M447.7,339.9c0-1.6,1-2.4,3-2.4h7.2c2,0,3,0.8,3,2.4v8.4c0,1.6-1,2.4-3,2.4h-7.2c-2,0-3-0.8-3-2.4V339.9z
				 M451.3,349h6c0.5,0,0.8-0.2,0.8-0.6v-8.5c0-0.4-0.3-0.6-0.8-0.6h-6c-0.5,0-0.8,0.2-0.8,0.6v8.5C450.5,348.8,450.7,349,451.3,349
				z"/>
		</g>
		<g>
			<path class="st1" d="M463.7,343.3c0-1.5,0.9-2.2,2.8-2.2h3.4v1.5H467c-0.5,0-0.7,0.2-0.7,0.6v7.5h-2.6V343.3z"/>
		</g>
		<g>
			<path class="st1" d="M471.9,337.5h2.6v3.6h5.2c1.9,0,2.8,0.7,2.8,2.2v5.1c0,1.5-0.9,2.2-2.8,2.2h-7.8V337.5z M479.2,349.2
				c0.5,0,0.7-0.2,0.7-0.6v-5.5c0-0.4-0.2-0.6-0.7-0.6h-4.7v6.6H479.2z"/>
		</g>
		<g>
			<path class="st1" d="M485.1,337.5h2.6v2h-2.6V337.5z M485.1,341.1h2.6v9.6h-2.6V341.1z"/>
		</g>
		<g>
			<path class="st1" d="M490.3,337.5h2.6v3.6h3.6v1.5h-3.6v6c0,0.4,0.2,0.6,0.7,0.6h2.9v1.5h-3.4c-1.9,0-2.8-0.7-2.8-2.2V337.5z"/>
		</g>
		<g>
			<path class="st1" d="M505.3,337.5h12v1.7h-9.2v3.8h8.2v1.7h-8.2v6h-2.8V337.5z"/>
		</g>
	</g>
	<g>
		<g>
			<path class="st1" d="M447.7,408.9c0-1.6,1-2.4,3-2.4h7.2c2,0,3,0.8,3,2.4v8.4c0,1.6-1,2.4-3,2.4h-7.2c-2,0-3-0.8-3-2.4V408.9z
				 M451.3,418h6c0.5,0,0.8-0.2,0.8-0.6v-8.5c0-0.4-0.3-0.6-0.8-0.6h-6c-0.5,0-0.8,0.2-0.8,0.6v8.5C450.5,417.8,450.7,418,451.3,418
				z"/>
		</g>
		<g>
			<path class="st1" d="M463.7,412.3c0-1.5,0.9-2.2,2.8-2.2h3.4v1.5H467c-0.5,0-0.7,0.2-0.7,0.6v7.5h-2.6V412.3z"/>
		</g>
		<g>
			<path class="st1" d="M471.9,406.5h2.6v3.6h5.2c1.9,0,2.8,0.7,2.8,2.2v5.1c0,1.5-0.9,2.2-2.8,2.2h-7.8V406.5z M479.2,418.2
				c0.5,0,0.7-0.2,0.7-0.6v-5.5c0-0.4-0.2-0.6-0.7-0.6h-4.7v6.6H479.2z"/>
		</g>
		<g>
			<path class="st1" d="M485.1,406.5h2.6v2h-2.6V406.5z M485.1,410.1h2.6v9.6h-2.6V410.1z"/>
		</g>
		<g>
			<path class="st1" d="M490.3,406.5h2.6v3.6h3.6v1.5h-3.6v6c0,0.4,0.2,0.6,0.7,0.6h2.9v1.5h-3.4c-1.9,0-2.8-0.7-2.8-2.2V406.5z"/>
		</g>
		<g>
			<path class="st1" d="M505.3,408.9c0-1.6,1-2.4,3-2.4h9.2v1.7h-8.6c-0.5,0-0.8,0.2-0.8,0.6v8.5c0,0.4,0.3,0.6,0.8,0.6h6.6v-4.5
				h-3.4v-1.7h6.2v7.9h-10c-2,0-3-0.8-3-2.4V408.9z"/>
		</g>
	</g>
	<g>
		<g>
			<path class="st1" d="M447.7,475.9c0-1.6,1-2.4,3-2.4h7.2c2,0,3,0.8,3,2.4v8.4c0,1.6-1,2.4-3,2.4h-7.2c-2,0-3-0.8-3-2.4V475.9z
				 M451.3,485h6c0.5,0,0.8-0.2,0.8-0.6v-8.5c0-0.4-0.3-0.6-0.8-0.6h-6c-0.5,0-0.8,0.2-0.8,0.6v8.5C450.5,484.8,450.7,485,451.3,485
				z"/>
		</g>
		<g>
			<path class="st1" d="M463.7,479.3c0-1.5,0.9-2.2,2.8-2.2h3.4v1.5H467c-0.5,0-0.7,0.2-0.7,0.6v7.5h-2.6V479.3z"/>
		</g>
		<g>
			<path class="st1" d="M471.9,473.5h2.6v3.6h5.2c1.9,0,2.8,0.7,2.8,2.2v5.1c0,1.5-0.9,2.2-2.8,2.2h-7.8V473.5z M479.2,485.2
				c0.5,0,0.7-0.2,0.7-0.6v-5.5c0-0.4-0.2-0.6-0.7-0.6h-4.7v6.6H479.2z"/>
		</g>
		<g>
			<path class="st1" d="M485.1,473.5h2.6v2h-2.6V473.5z M485.1,477.1h2.6v9.6h-2.6V477.1z"/>
		</g>
		<g>
			<path class="st1" d="M490.3,473.5h2.6v3.6h3.6v1.5h-3.6v6c0,0.4,0.2,0.6,0.7,0.6h2.9v1.5h-3.4c-1.9,0-2.8-0.7-2.8-2.2V473.5z"/>
		</g>
		<g>
			<path class="st1" d="M505.3,473.5h2.8v5.3h7.6v-5.3h2.8v13.2h-2.8v-6.2h-7.6v6.2h-2.8V473.5z"/>
		</g>
	</g>
	<g>
		<g>
			<path class="st1" d="M447.7,542.9c0-1.6,1-2.4,3-2.4h7.2c2,0,3,0.8,3,2.4v8.4c0,1.6-1,2.4-3,2.4h-7.2c-2,0-3-0.8-3-2.4V542.9z
				 M451.3,552h6c0.5,0,0.8-0.2,0.8-0.6v-8.5c0-0.4-0.3-0.6-0.8-0.6h-6c-0.5,0-0.8,0.2-0.8,0.6v8.5C450.5,551.8,450.7,552,451.3,552
				z"/>
		</g>
		<g>
			<path class="st1" d="M463.7,546.3c0-1.5,0.9-2.2,2.8-2.2h3.4v1.5H467c-0.5,0-0.7,0.2-0.7,0.6v7.5h-2.6V546.3z"/>
		</g>
		<g>
			<path class="st1" d="M471.9,540.5h2.6v3.6h5.2c1.9,0,2.8,0.7,2.8,2.2v5.1c0,1.5-0.9,2.2-2.8,2.2h-7.8V540.5z M479.2,552.2
				c0.5,0,0.7-0.2,0.7-0.6v-5.5c0-0.4-0.2-0.6-0.7-0.6h-4.7v6.6H479.2z"/>
		</g>
		<g>
			<path class="st1" d="M485.1,540.5h2.6v2h-2.6V540.5z M485.1,544.1h2.6v9.6h-2.6V544.1z"/>
		</g>
		<g>
			<path class="st1" d="M490.3,540.5h2.6v3.6h3.6v1.5h-3.6v6c0,0.4,0.2,0.6,0.7,0.6h2.9v1.5h-3.4c-1.9,0-2.8-0.7-2.8-2.2V540.5z"/>
		</g>
		<g>
			<path class="st1" d="M505.3,540.5h2.8v13.2h-2.8V540.5z"/>
		</g>
	</g>
</g>
<g>
	<g>
		<polygon class="st1" points="287.8,195.9 287.8,195.9 290.5,194.5 		"/>
	</g>
	<g>
		
			<rect x="76.1" y="295.6" transform="matrix(0.9889 -0.1488 0.1488 0.9889 -43.2982 15.3891)" class="st1" width="10.3" height="3"/>
	</g>
	<g>
		
			<rect x="92" y="285.1" transform="matrix(0.9976 -6.900316e-02 6.900316e-02 0.9976 -19.5498 7.2892)" class="st1" width="7.5" height="3"/>
	</g>
	<g>
		
			<rect x="107.6" y="274.1" transform="matrix(7.444125e-02 -0.9972 0.9972 7.444125e-02 -175.2645 365.1807)" class="st1" width="3" height="5.8"/>
	</g>
	<g>
		
			<rect x="122.1" y="264.5" transform="matrix(0.1371 -0.9906 0.9906 0.1371 -158.3095 353.3059)" class="st1" width="3" height="6"/>
	</g>
	<g>
		
			<rect x="137.1" y="255" transform="matrix(0.3015 -0.9535 0.9535 0.3015 -148.9912 312.2131)" class="st1" width="3" height="5.6"/>
	</g>
	<g>
		
			<rect x="152.4" y="246.8" transform="matrix(0.7281 -0.6854 0.6854 0.7281 -128.6622 173.1463)" class="st1" width="3" height="4"/>
	</g>
	<g>
		<rect x="168.4" y="237.8" transform="matrix(0.9603 -0.279 0.279 0.9603 -60.1848 56.9369)" class="st1" width="3" height="4.2"/>
	</g>
	<g>
		<rect x="183.7" y="229.9" transform="matrix(0.126 -0.992 0.992 0.126 -66.8967 386.9277)" class="st1" width="4.8" height="3"/>
	</g>
	<g>
		
			<rect x="199.3" y="221.6" transform="matrix(0.3698 -0.9291 0.9291 0.3698 -79.6903 328.6317)" class="st1" width="6.2" height="3"/>
	</g>
	<g>
		
			<rect x="214.4" y="214.5" transform="matrix(0.5097 -0.8603 0.8603 0.5097 -78.7781 293.6791)" class="st1" width="7.8" height="3"/>
	</g>
	<g>
		
			<rect x="228.9" y="208.4" transform="matrix(0.6165 -0.7874 0.7874 0.6165 -75.8525 264.0123)" class="st1" width="8.3" height="3"/>
	</g>
	<g>
		
			<rect x="242.5" y="202.8" transform="matrix(0.6475 -0.7621 0.7621 0.6475 -68.6256 260.34)" class="st1" width="9.2" height="3"/>
	</g>
	<g>
		
			<rect x="254.5" y="198.3" transform="matrix(0.7065 -0.7078 0.7078 0.7065 -65.109 242.6865)" class="st1" width="11" height="3"/>
	</g>
	<g>
		
			<rect x="265.9" y="194.8" transform="matrix(0.7471 -0.6647 0.6647 0.7471 -61.7514 230.3546)" class="st1" width="11.8" height="3"/>
	</g>
	<g>
		
			<rect x="277.6" y="191.8" transform="matrix(0.7562 -0.6543 0.6543 0.7562 -57.1157 233.2624)" class="st1" width="13.7" height="3"/>
	</g>
	<g>
		<rect x="286.7" y="190.1" transform="matrix(0.803 -0.596 0.596 0.803 -56.2603 212.9737)" class="st1" width="14.6" height="3"/>
	</g>
	<g>
		
			<rect x="294.1" y="189.1" transform="matrix(0.8152 -0.5792 0.5792 0.8152 -54.4088 210.6066)" class="st1" width="17.4" height="3"/>
	</g>
	<g>
		
			<rect x="301.9" y="189.2" transform="matrix(0.8275 -0.5615 0.5615 0.8275 -53.5747 207.0126)" class="st1" width="16.4" height="3"/>
	</g>
	<g>
		
			<rect x="307.1" y="190.4" transform="matrix(0.8445 -0.5355 0.5355 0.8445 -53.6999 198.9492)" class="st1" width="17.3" height="3"/>
	</g>
	<g>
		
			<rect x="312.3" y="191.8" transform="matrix(0.8525 -0.5228 0.5228 0.8525 -53.6302 196.5772)" class="st1" width="18.3" height="3"/>
	</g>
	<g>
		
			<rect x="314.5" y="195.5" transform="matrix(0.8715 -0.4903 0.4903 0.8715 -54.942 184.2071)" class="st1" width="19.2" height="3"/>
	</g>
	<g>
		
			<rect x="316.6" y="199.2" transform="matrix(0.8829 -0.4695 0.4695 0.8829 -56.0602 176.6526)" class="st1" width="19.3" height="3"/>
	</g>
	<g>
		
			<rect x="317.1" y="204.1" transform="matrix(0.8991 -0.4378 0.4378 0.8991 -57.0259 163.7993)" class="st1" width="19.3" height="3"/>
	</g>
	<g>
		
			<rect x="315" y="210.4" transform="matrix(0.9058 -0.4238 0.4238 0.9058 -59.2297 157.3434)" class="st1" width="18.3" height="3"/>
	</g>
	<g>
		
			<rect x="311.9" y="216.6" transform="matrix(0.9161 -0.4011 0.4011 0.9161 -60.5089 147.0748)" class="st1" width="18.4" height="3"/>
	</g>
	<g>
		
			<rect x="306.9" y="223.5" transform="matrix(0.9256 -0.3785 0.3785 0.9256 -61.657 136.4097)" class="st1" width="18.4" height="3"/>
	</g>
	<g>
		
			<rect x="301.3" y="231.6" transform="matrix(0.9392 -0.3434 0.3434 0.9392 -61.2503 120.3305)" class="st1" width="15.6" height="3"/>
	</g>
	<g>
		
			<rect x="293.8" y="240.2" transform="matrix(0.9567 -0.291 0.291 0.9567 -57.3344 97.9733)" class="st1" width="13.8" height="3"/>
	</g>
	<g>
		
			<rect x="282.8" y="250.1" transform="matrix(0.9612 -0.2757 0.2757 0.9612 -58.1105 89.768)" class="st1" width="14.8" height="3"/>
	</g>
	<g>
		<rect x="270" y="261.1" transform="matrix(0.9741 -0.2263 0.2263 0.9741 -52.234 69.3768)" class="st1" width="13" height="3"/>
	</g>
	<g>
		
			<rect x="257.9" y="271.5" transform="matrix(0.9941 -0.1081 0.1081 0.9941 -27.9632 30.0314)" class="st1" width="10.5" height="3"/>
	</g>
	<g>
		
			<rect x="246.1" y="279.6" transform="matrix(0.1065 -0.9943 0.9943 0.1065 -60.8754 499.6507)" class="st1" width="3" height="8.3"/>
	</g>
	<g>
		
			<rect x="227.6" y="292.5" transform="matrix(0.2685 -0.9633 0.9633 0.2685 -117.5175 437.1343)" class="st1" width="3" height="6.8"/>
	</g>
	<g>
		
			<rect x="209.1" y="304.6" transform="matrix(0.6387 -0.7695 0.7695 0.6387 -160.3394 273.071)" class="st1" width="3" height="5.4"/>
	</g>
	<g>
		<rect x="186.5" y="317.6" transform="matrix(0.14 -0.9902 0.9902 0.14 -152.8356 462.1544)" class="st1" width="6.3" height="3"/>
	</g>
	<g>
		
			<rect x="163.8" y="328.9" transform="matrix(0.4668 -0.8844 0.8844 0.4668 -202.6936 324.6123)" class="st1" width="8" height="3"/>
	</g>
	<g>
		<rect x="142" y="338.6" transform="matrix(0.5592 -0.829 0.829 0.5592 -217.2572 271.6422)" class="st1" width="9.7" height="3"/>
	</g>
	<g>
		
			<rect x="121.6" y="346.9" transform="matrix(0.6562 -0.7545 0.7545 0.6562 -218.963 216.1271)" class="st1" width="12.3" height="3"/>
	</g>
	<g>
		
			<rect x="103.5" y="353.6" transform="matrix(0.7238 -0.69 0.69 0.7238 -214.4621 174.2941)" class="st1" width="13.9" height="3"/>
	</g>
	<g>
		
			<rect x="85.7" y="358.9" transform="matrix(0.7442 -0.668 0.668 0.7442 -216.7685 154.718)" class="st1" width="15.8" height="3"/>
	</g>
	<g>
		
			<rect x="71.4" y="362.3" transform="matrix(0.7891 -0.6143 0.6143 0.7891 -206.4862 126.2829)" class="st1" width="18.5" height="3"/>
	</g>
	<g>
		
			<rect x="57.7" y="365.2" transform="matrix(0.8043 -0.5943 0.5943 0.8043 -204.6133 112.1206)" class="st1" width="20.4" height="3"/>
	</g>
	<g>
		
			<rect x="48.1" y="366" transform="matrix(0.8184 -0.5746 0.5746 0.8184 -200.7659 99.6704)" class="st1" width="18.4" height="3"/>
	</g>
	<g>
		
			<rect x="39.2" y="365.7" transform="matrix(0.828 -0.5608 0.5608 0.828 -197.4943 90.5598)" class="st1" width="19.3" height="3"/>
	</g>
	<g>
		
			<rect x="32.6" y="363.8" transform="matrix(0.8459 -0.5333 0.5333 0.8459 -188.3885 78.5382)" class="st1" width="18.3" height="3"/>
	</g>
	<g>
		
			<rect x="26.4" y="360.3" transform="matrix(0.8658 -0.5003 0.5003 0.8658 -176.1285 66.7776)" class="st1" width="20.2" height="3"/>
	</g>
	<g>
		<rect x="24.8" y="355.7" transform="matrix(0.877 -0.4805 0.4805 0.877 -167.316 60.7205)" class="st1" width="20.2" height="3"/>
	</g>
	<g>
		
			<rect x="25.7" y="349.5" transform="matrix(0.8938 -0.4485 0.4485 0.8938 -153.6855 53.1447)" class="st1" width="19.3" height="3"/>
	</g>
	<g>
		
			<rect x="29" y="341.7" transform="matrix(0.9187 -0.3949 0.3949 0.9187 -132.4004 43.1811)" class="st1" width="19.4" height="3"/>
	</g>
	<g>
		
			<rect x="35.2" y="333.5" transform="matrix(0.9258 -0.3779 0.3779 0.9258 -123.405 41.2835)" class="st1" width="16.5" height="3"/>
	</g>
	<g>
		<rect x="43.3" y="324.7" transform="matrix(0.9478 -0.319 0.319 0.9478 -101.3904 33.185)" class="st1" width="14.7" height="3"/>
	</g>
	<g>
		
			<rect x="53.1" y="314.8" transform="matrix(0.9567 -0.2911 0.2911 0.9567 -89.4831 31.163)" class="st1" width="13.8" height="3"/>
	</g>
	<g>
		
			<rect x="64.3" y="305.6" transform="matrix(0.9663 -0.2575 0.2575 0.9663 -76.7182 28.4551)" class="st1" width="11.9" height="3"/>
	</g>
	<g>
		
			<rect x="180" y="138.9" transform="matrix(0.8715 -0.4904 0.4904 0.8715 -113.5769 125.3965)" class="st2" width="5" height="281"/>
	</g>
	<g>
		<polygon class="st3" points="192.5,281.7 179.3,288.9 166.5,281 166.9,266 180.1,258.9 192.9,266.7 		"/>
	</g>
	<g>
		<path class="st3" d="M150,235.3c-1.3,0-2.6-0.2-3.8-0.5c-3.6-1-6.7-3.4-8.5-6.7c-1.9-3.3-2.3-7.1-1.3-10.8c1-3.6,3.4-6.7,6.7-8.5
			c3.3-1.9,7.1-2.3,10.8-1.3c3.6,1,6.7,3.4,8.5,6.7c1.9,3.3,2.3,7.1,1.3,10.8c-1,3.6-3.4,6.7-6.7,8.5
			C154.8,234.7,152.4,235.3,150,235.3z M150,211c-1.7,0-3.4,0.4-5,1.3c-2.4,1.3-4.1,3.5-4.8,6.1c-0.7,2.6-0.4,5.4,0.9,7.7v0
			c1.3,2.4,3.5,4.1,6.1,4.8c2.6,0.7,5.4,0.4,7.7-0.9c2.4-1.3,4.1-3.5,4.8-6.1c0.7-2.6,0.4-5.4-0.9-7.7c-1.3-2.4-3.5-4.1-6.1-4.8
			C151.8,211.1,150.9,211,150,211z"/>
	</g>
	<g>
		<path class="st4" d="M134.2,202.3c-2.9,0-5.7-1.5-7.2-4.2v0c-2.2-3.9-0.8-9,3.1-11.2c1.9-1.1,4.1-1.3,6.2-0.8
			c2.1,0.6,3.9,2,4.9,3.9c2.2,3.9,0.8,9-3.1,11.2C136.9,202,135.6,202.3,134.2,202.3z M130.5,196.2c0.6,1,1.5,1.7,2.5,2
			c1.1,0.3,2.2,0.2,3.2-0.4c1-0.6,1.7-1.5,2-2.5s0.2-2.2-0.4-3.2c-0.6-1-1.5-1.7-2.5-2c-1.1-0.3-2.2-0.2-3.2,0.4
			C130.1,191.6,129.4,194.1,130.5,196.2L130.5,196.2z"/>
	</g>
	<g>
		<path class="st3" d="M122.3,177.9c-0.5,0-0.9-0.1-1.3-0.2c-1.3-0.4-2.3-1.2-3-2.4l0,0c-0.7-1.2-0.8-2.5-0.5-3.8
			c0.4-1.3,1.2-2.3,2.4-3c2.4-1.3,5.4-0.5,6.8,1.9c1.3,2.4,0.5,5.4-1.9,6.8C123.9,177.7,123.1,177.9,122.3,177.9z M122.3,171.9
			c-0.1,0-0.3,0-0.5,0.1c-0.3,0.2-0.4,0.4-0.5,0.6c0,0.1-0.1,0.4,0.1,0.7v0c0.2,0.3,0.4,0.4,0.6,0.5c0.1,0,0.4,0.1,0.7-0.1
			c0.5-0.3,0.6-0.9,0.4-1.3c-0.2-0.3-0.4-0.4-0.6-0.5C122.5,171.9,122.4,171.9,122.3,171.9z"/>
	</g>
	<g>
		<path class="st3" d="M213.6,348.3c-1.3,0-2.6-0.2-3.8-0.5c-3.6-1-6.7-3.4-8.5-6.7l0,0c-1.9-3.3-2.3-7.1-1.3-10.8
			c1-3.6,3.4-6.7,6.7-8.5c6.8-3.8,15.5-1.4,19.3,5.4c3.8,6.8,1.4,15.5-5.4,19.3C218.4,347.7,216,348.3,213.6,348.3z M213.6,324
			c-1.7,0-3.4,0.4-5,1.3c-2.4,1.3-4.1,3.5-4.8,6.1c-0.7,2.6-0.4,5.4,0.9,7.7l0,0c1.3,2.4,3.5,4.1,6.1,4.8c2.6,0.7,5.4,0.4,7.7-0.9
			c4.9-2.7,6.6-9,3.9-13.8C220.6,325.9,217.2,324,213.6,324z"/>
	</g>
	<g>
		<path class="st4" d="M228.5,370c-2.9,0-5.7-1.5-7.2-4.2l0,0c-2.2-3.9-0.8-9,3.1-11.2c1.9-1.1,4.1-1.3,6.2-0.8
			c2.1,0.6,3.9,2,4.9,3.9c2.2,3.9,0.8,9-3.1,11.2C231.3,369.6,229.9,370,228.5,370z M224.8,363.8c1.1,2,3.7,2.7,5.7,1.6
			c2-1.1,2.7-3.7,1.6-5.7c-0.6-1-1.5-1.7-2.5-2c-1.1-0.3-2.2-0.2-3.2,0.4C224.4,359.2,223.7,361.8,224.8,363.8L224.8,363.8z"/>
	</g>
	<g>
		<path class="st0" d="M179.3,353c-27.3,0-53.8-14.3-68.1-39.7c-10.2-18.2-12.8-39.2-7.1-59.3c5.6-20.1,18.7-36.7,36.9-47
			c18.2-10.2,39.2-12.8,59.3-7.1c20.1,5.6,36.7,18.7,47,36.9l0,0c21.1,37.5,7.8,85.1-29.7,106.2C205.3,349.8,192.2,353,179.3,353z
			 M179,207c-11.5,0-22.9,3-33.2,8.8c-15.8,8.9-27.2,23.4-32.1,40.9s-2.7,35.8,6.2,51.7c18.4,32.7,59.9,44.3,92.6,25.9
			c32.7-18.4,44.3-59.9,25.9-92.6c-8.9-15.8-23.4-27.2-40.9-32.1C191.4,207.8,185.2,207,179,207z"/>
	</g>
	<g>
		<path class="st3" d="M240.4,387.9c-1.7,0-3.4-0.9-4.3-2.5l0,0c-1.3-2.4-0.5-5.4,1.9-6.8c1.2-0.7,2.5-0.8,3.8-0.5
			c1.3,0.4,2.3,1.2,3,2.4s0.8,2.5,0.5,3.8s-1.2,2.3-2.4,3C242.1,387.7,241.3,387.9,240.4,387.9z M239.6,383.4
			c0.3,0.5,0.9,0.6,1.3,0.4c0.3-0.2,0.4-0.4,0.5-0.6s0.1-0.4-0.1-0.7c-0.2-0.3-0.4-0.4-0.6-0.5c-0.1,0-0.4-0.1-0.7,0.1
			C239.5,382.4,239.3,383,239.6,383.4L239.6,383.4z"/>
	</g>
	<g>
		
			<rect x="156.1" y="272.2" transform="matrix(0.8715 -0.4903 0.4903 0.8715 -111.1104 123.1932)" class="st1" width="47" height="3"/>
	</g>
</g>
</svg>
