<svg xmlns="http://www.w3.org/2000/svg" viewBox="0 0 132.38 582"><defs><style>.cls-1{fill:#61479c;}.cls-2{fill:#13177a;}.cls-3{fill:#e35832;}.cls-4{fill:#c42929;}.cls-5{fill:#10a4e1;}.cls-6{fill:#fff;}</style></defs><title>Slider</title><g id="Layer_2" data-name="Layer 2"><g id="Layer_1-2" data-name="Layer 1"><rect class="cls-1" x="64.38" y="1" width="31" height="5"/><rect class="cls-1" x="1.38" y="9" width="35" height="16" transform="matrix(0.81, -0.58, 0.58, 0.81, -6.37, 14.21)"/><polygon class="cls-2" points="63.38 0 28.38 0 28.38 16 63.38 16 71.38 0 63.38 0"/><circle class="cls-3" cx="32.38" cy="4" r="2"/><circle class="cls-3" cx="32.38" cy="12" r="2"/><circle class="cls-3" cx="64.38" cy="4" r="2"/><rect class="cls-1" x="66.38" y="576" width="31" height="5"/><rect class="cls-1" x="3.38" y="557" width="35" height="16" transform="translate(333.53 93.92) rotate(35.69)"/><polygon class="cls-2" points="65.38 582 30.38 582 30.38 566 65.38 566 73.38 582 65.38 582"/><circle class="cls-3" cx="34.38" cy="578" r="2"/><circle class="cls-3" cx="34.38" cy="570" r="2"/><circle class="cls-3" cx="66.38" cy="578" r="2"/><rect class="cls-4" x="26.38" y="34.5" width="23" height="3"/><rect class="cls-4" x="12.38" y="52.5" width="52" height="3"/><rect class="cls-4" x="12.38" y="69.5" width="37" height="3"/><rect class="cls-4" x="12.88" y="86.5" width="52" height="3"/><rect class="cls-4" x="12.88" y="103.5" width="37" height="3"/><rect class="cls-4" x="12.38" y="120.5" width="52" height="3"/><rect class="cls-4" x="12.38" y="137.5" width="37" height="3"/><rect class="cls-4" x="12.88" y="154.5" width="52" height="3"/><rect class="cls-4" x="12.88" y="171.5" width="37" height="3"/><rect class="cls-4" x="12.38" y="188.5" width="52" height="3"/><rect class="cls-4" x="12.38" y="205.5" width="37" height="3"/><rect class="cls-4" x="12.88" y="222.5" width="52" height="3"/><rect class="cls-4" x="12.88" y="239.5" width="37" height="3"/><rect class="cls-4" x="12.38" y="256.5" width="52" height="3"/><rect class="cls-4" x="12.38" y="273.5" width="37" height="3"/><rect class="cls-5" x="12.88" y="290.5" width="52" height="3"/><rect class="cls-5" x="12.88" y="307.5" width="37" height="3"/><rect class="cls-5" x="12.38" y="325.5" width="52" height="3"/><rect class="cls-5" x="12.38" y="342.5" width="37" height="3"/><rect class="cls-5" x="12.88" y="359.5" width="52" height="3"/><rect class="cls-5" x="12.88" y="376.5" width="37" height="3"/><rect class="cls-5" x="12.38" y="393.5" width="52" height="3"/><rect class="cls-5" x="12.38" y="410.5" width="37" height="3"/><rect class="cls-5" x="12.88" y="427.5" width="52" height="3"/><rect class="cls-5" x="12.88" y="444.5" width="37" height="3"/><rect class="cls-5" x="12.38" y="461.5" width="52" height="3"/><rect class="cls-5" x="12.38" y="478.5" width="37" height="3"/><rect class="cls-5" x="12.88" y="495.5" width="52" height="3"/><rect class="cls-5" x="12.88" y="512.5" width="37" height="3"/><rect class="cls-5" x="12.38" y="529.5" width="52" height="3"/><rect class="cls-5" x="28.38" y="546.5" width="21" height="3"/><polygon class="cls-3" points="132.38 264 132.38 300 73.38 300 72.71 297.5 72.17 295.5 66.38 274 87.38 274 99.38 264 132.38 264"/><path class="cls-6" d="M80.61,279.93h4.8v9.9h-2.1v-8.62h-2.7Z"/><path class="cls-6" d="M89.76,279.93h8.85v1.28l-4.72,8.62H91.56l4.73-8.62H89.76Z"/><path class="cls-6" d="M100.71,282.63h2.1v1.8h-2.1Zm0,5.4h2.1v1.8h-2.1Z"/><path class="cls-6" d="M104.91,281.73q0-1.8,2.25-1.8h4.35q2.25,0,2.25,1.8V288q0,1.8-2.25,1.8h-4.35q-2.25,0-2.25-1.8Zm2.7,6.83h3.45c.41,0,.6-.17.6-.48v-6.39c0-.32-.19-.48-.6-.48h-3.45q-.6,0-.6.48v6.39C107,288.39,107.21,288.56,107.61,288.56Z"/><path class="cls-6" d="M115.56,281.73q0-1.8,2.25-1.8h4.35q2.25,0,2.25,1.8V288q0,1.8-2.25,1.8h-4.35q-2.25,0-2.25-1.8Zm2.7,6.83h3.45c.41,0,.6-.17.6-.48v-6.39c0-.32-.19-.48-.6-.48h-3.45q-.6,0-.6.48v6.39C117.66,288.39,117.86,288.56,118.26,288.56Z"/><circle class="cls-6" cx="127.88" cy="269.5" r="2"/><line class="cls-6" x1="121.88" y1="269.5" x2="98.88" y2="269.5"/><rect class="cls-6" x="98.88" y="268.5" width="23" height="2"/><polygon class="cls-6" points="121.88 295.5 121.88 297.5 72.71 297.5 72.17 295.5 121.88 295.5"/><circle class="cls-6" cx="127.88" cy="296.5" r="2"/><polygon class="cls-2" points="80.88 559.5 39.55 559.5 9.88 537.25 9.88 44.71 39.58 23.5 80.38 23.5 80.38 28.5 41.18 28.5 14.88 47.29 14.88 534.75 41.21 554.5 80.88 554.5 80.88 559.5"/></g></g></svg>