<svg xmlns="http://www.w3.org/2000/svg" viewBox="0 0 69.5 36"><defs><style>.cls-1{fill:#dcd7d5;}.cls-2{fill:#e35832;}.cls-3{fill:#fff;}</style></defs><title>Tag</title><g id="Layer_2" data-name="Layer 2"><g id="Layer_1-2" data-name="Layer 1"><line class="cls-1" x1="68.5" y1="4.5" x2="69.5" y2="4.5"/><polygon class="cls-2" points="66 0 66 36 7 36 6.33 33.5 5.79 31.5 0 10 21 10 33 0 66 0"/><path class="cls-3" d="M14.23,15.93H19v9.9h-2.1V17.21h-2.7Z"/><path class="cls-3" d="M23.38,15.93h8.85v1.28l-4.72,8.62H25.18l4.73-8.62H23.38Z"/><path class="cls-3" d="M34.33,18.63h2.1v1.8h-2.1Zm0,5.4h2.1v1.8h-2.1Z"/><path class="cls-3" d="M38.53,17.73q0-1.8,2.25-1.8h4.35q2.25,0,2.25,1.8V24q0,1.8-2.25,1.8H40.78q-2.25,0-2.25-1.8Zm2.7,6.83h3.45c.41,0,.6-.17.6-.48V17.69c0-.32-.19-.48-.6-.48H41.23q-.6,0-.6.48v6.39C40.63,24.39,40.83,24.56,41.23,24.56Z"/><path class="cls-3" d="M49.18,17.73q0-1.8,2.25-1.8h4.35q2.25,0,2.25,1.8V24q0,1.8-2.25,1.8H51.43q-2.25,0-2.25-1.8Zm2.7,6.83h3.45c.41,0,.6-.17.6-.48V17.69c0-.32-.19-.48-.6-.48H51.88q-.6,0-.6.48v6.39C51.28,24.39,51.48,24.56,51.88,24.56Z"/><circle class="cls-3" cx="61.5" cy="5.5" r="2"/><line class="cls-3" x1="55.5" y1="5.5" x2="32.5" y2="5.5"/><rect class="cls-3" x="32.5" y="4.5" width="23" height="2"/><polygon class="cls-3" points="55.5 31.5 55.5 33.5 6.33 33.5 5.79 31.5 55.5 31.5"/><circle class="cls-3" cx="61.5" cy="32.5" r="2"/></g></g></svg>